<?xml version="1.0" encoding="UTF-8" standalone="no"?>
<!DOCTYPE svg PUBLIC "-//W3C//DTD SVG 1.1//EN"
 "http://www.w3.org/Graphics/SVG/1.1/DTD/svg11.dtd">
<!-- Generated by graphviz version 9.0.0 (20230911.1827)
 -->
<!-- Pages: 1 -->
<svg width="664pt" height="308pt"
 viewBox="0.00 0.00 663.79 308.33" xmlns="http://www.w3.org/2000/svg" xmlns:xlink="http://www.w3.org/1999/xlink">
<g id="graph0" class="graph" transform="scale(1 1) rotate(0) translate(4 304.33)">
<polygon fill="white" stroke="none" points="-4,4 -4,-304.33 659.79,-304.33 659.79,4 -4,4"/>
<!-- &#45;1 -->
<g id="node1" class="node">
<title>&#45;1</title>
<polygon fill="lightgray" stroke="black" points="23.5,-285.92 0,-285.92 0,-266.67 23.5,-266.67 23.5,-285.92"/>
<text text-anchor="middle" x="11.75" y="-273.37" font-family="Times New Roman,serif" font-size="9.00">&#45;1</text>
</g>
<!-- 0 -->
<g id="node12" class="node">
<title>0</title>
<ellipse fill="lightblue" stroke="black" cx="116.75" cy="-192.21" rx="14.5" ry="14.5"/>
<text text-anchor="middle" x="116.75" y="-189.28" font-family="Times New Roman,serif" font-size="9.00">0</text>
</g>
<!-- &#45;1&#45;&gt;0 -->
<g id="edge1" class="edge">
<title>&#45;1&#45;&gt;0</title>
<path fill="none" stroke="green" stroke-width="2.56" d="M19.11,-266.33C22.96,-261.87 27.88,-256.54 32.75,-252.25 51.71,-235.55 75.42,-219.24 92.82,-208.01"/>
<polygon fill="green" stroke="green" stroke-width="2.56" points="94.6,-211.03 101.18,-202.72 90.86,-205.11 94.6,-211.03"/>
</g>
<!-- &#45;2 -->
<g id="node2" class="node">
<title>&#45;2</title>
<polygon fill="lightgray" stroke="black" points="65.5,-285.92 42,-285.92 42,-266.67 65.5,-266.67 65.5,-285.92"/>
<text text-anchor="middle" x="53.75" y="-273.37" font-family="Times New Roman,serif" font-size="9.00">&#45;2</text>
</g>
<!-- &#45;2&#45;&gt;0 -->
<g id="edge2" class="edge">
<title>&#45;2&#45;&gt;0</title>
<path fill="none" stroke="red" stroke-width="2.19" d="M60.73,-266.19C70.16,-253.92 87.24,-231.66 100.07,-214.94"/>
<polygon fill="red" stroke="red" stroke-width="2.19" points="102.8,-217.13 106.11,-207.07 97.25,-212.87 102.8,-217.13"/>
</g>
<!-- &#45;3 -->
<g id="node3" class="node">
<title>&#45;3</title>
<polygon fill="lightgray" stroke="black" points="259.5,-201.83 236,-201.83 236,-182.58 259.5,-182.58 259.5,-201.83"/>
<text text-anchor="middle" x="247.75" y="-189.28" font-family="Times New Roman,serif" font-size="9.00">&#45;3</text>
</g>
<!-- 6087 -->
<g id="node21" class="node">
<title>6087</title>
<ellipse fill="none" stroke="black" cx="214.75" cy="-108.12" rx="24.04" ry="24.04"/>
<text text-anchor="middle" x="214.75" y="-105.2" font-family="Times New Roman,serif" font-size="9.00">6087</text>
</g>
<!-- &#45;3&#45;&gt;6087 -->
<g id="edge18" class="edge">
<title>&#45;3&#45;&gt;6087</title>
<path fill="none" stroke="red" stroke-width="0.31" d="M244.09,-182.11C240.05,-172.04 233.3,-155.27 227.3,-140.33"/>
<polygon fill="red" stroke="red" stroke-width="0.31" points="230.65,-139.28 223.67,-131.31 224.15,-141.89 230.65,-139.28"/>
</g>
<!-- 6498 -->
<g id="node23" class="node">
<title>6498</title>
<ellipse fill="none" stroke="black" cx="280.75" cy="-108.12" rx="24.04" ry="24.04"/>
<text text-anchor="middle" x="280.75" y="-105.2" font-family="Times New Roman,serif" font-size="9.00">6498</text>
</g>
<!-- &#45;3&#45;&gt;6498 -->
<g id="edge15" class="edge">
<title>&#45;3&#45;&gt;6498</title>
<path fill="none" stroke="green" stroke-width="0.32" d="M251.41,-182.11C255.45,-172.04 262.2,-155.27 268.2,-140.33"/>
<polygon fill="green" stroke="green" stroke-width="0.32" points="271.34,-141.92 271.82,-131.33 264.84,-139.31 271.34,-141.92"/>
</g>
<!-- &#45;4 -->
<g id="node4" class="node">
<title>&#45;4</title>
<polygon fill="lightgray" stroke="black" points="107.5,-285.92 84,-285.92 84,-266.67 107.5,-266.67 107.5,-285.92"/>
<text text-anchor="middle" x="95.75" y="-273.37" font-family="Times New Roman,serif" font-size="9.00">&#45;4</text>
</g>
<!-- &#45;4&#45;&gt;0 -->
<g id="edge7" class="edge">
<title>&#45;4&#45;&gt;0</title>
<path fill="none" stroke="red" stroke-width="1.52" d="M98.08,-266.19C101.02,-254.68 106.21,-234.41 110.37,-218.14"/>
<polygon fill="red" stroke="red" stroke-width="1.52" points="113.64,-219.48 112.73,-208.92 106.86,-217.74 113.64,-219.48"/>
</g>
<!-- &#45;5 -->
<g id="node5" class="node">
<title>&#45;5</title>
<polygon fill="lightgray" stroke="black" points="237.5,-285.92 214,-285.92 214,-266.67 237.5,-266.67 237.5,-285.92"/>
<text text-anchor="middle" x="225.75" y="-273.37" font-family="Times New Roman,serif" font-size="9.00">&#45;5</text>
</g>
<!-- &#45;6 -->
<g id="node6" class="node">
<title>&#45;6</title>
<polygon fill="lightgray" stroke="black" points="149.5,-285.92 126,-285.92 126,-266.67 149.5,-266.67 149.5,-285.92"/>
<text text-anchor="middle" x="137.75" y="-273.37" font-family="Times New Roman,serif" font-size="9.00">&#45;6</text>
</g>
<!-- &#45;6&#45;&gt;0 -->
<g id="edge3" class="edge">
<title>&#45;6&#45;&gt;0</title>
<path fill="none" stroke="red" stroke-width="0.74" d="M135.42,-266.19C132.42,-254.46 127.09,-233.61 122.88,-217.19"/>
<polygon fill="red" stroke="red" stroke-width="0.74" points="126.35,-216.59 120.48,-207.77 119.56,-218.33 126.35,-216.59"/>
</g>
<!-- &#45;7 -->
<g id="node7" class="node">
<title>&#45;7</title>
<polygon fill="lightgray" stroke="black" points="279.5,-285.92 256,-285.92 256,-266.67 279.5,-266.67 279.5,-285.92"/>
<text text-anchor="middle" x="267.75" y="-273.37" font-family="Times New Roman,serif" font-size="9.00">&#45;7</text>
</g>
<!-- &#45;8 -->
<g id="node8" class="node">
<title>&#45;8</title>
<polygon fill="lightgray" stroke="black" points="321.5,-285.92 298,-285.92 298,-266.67 321.5,-266.67 321.5,-285.92"/>
<text text-anchor="middle" x="309.75" y="-273.37" font-family="Times New Roman,serif" font-size="9.00">&#45;8</text>
</g>
<!-- &#45;9 -->
<g id="node9" class="node">
<title>&#45;9</title>
<polygon fill="lightgray" stroke="black" points="363.5,-285.92 340,-285.92 340,-266.67 363.5,-266.67 363.5,-285.92"/>
<text text-anchor="middle" x="351.75" y="-273.37" font-family="Times New Roman,serif" font-size="9.00">&#45;9</text>
</g>
<!-- &#45;10 -->
<g id="node10" class="node">
<title>&#45;10</title>
<polygon fill="lightgray" stroke="black" points="195.75,-285.92 167.75,-285.92 167.75,-266.67 195.75,-266.67 195.75,-285.92"/>
<text text-anchor="middle" x="181.75" y="-273.37" font-family="Times New Roman,serif" font-size="9.00">&#45;10</text>
</g>
<!-- &#45;10&#45;&gt;0 -->
<g id="edge9" class="edge">
<title>&#45;10&#45;&gt;0</title>
<path fill="none" stroke="green" stroke-width="1.04" d="M174.55,-266.19C164.49,-253.49 145.97,-230.11 132.6,-213.23"/>
<polygon fill="green" stroke="green" stroke-width="1.04" points="135.36,-211.07 126.41,-205.4 129.87,-215.42 135.36,-211.07"/>
</g>
<!-- 5840 -->
<g id="node15" class="node">
<title>5840</title>
<ellipse fill="none" stroke="black" cx="148.75" cy="-108.12" rx="24.04" ry="24.04"/>
<text text-anchor="middle" x="148.75" y="-105.2" font-family="Times New Roman,serif" font-size="9.00">5840</text>
</g>
<!-- &#45;10&#45;&gt;5840 -->
<g id="edge13" class="edge">
<title>&#45;10&#45;&gt;5840</title>
<path fill="none" stroke="red" stroke-width="0.12" d="M179.98,-266.36C175.39,-243.28 162.97,-180.75 155.25,-141.85"/>
<polygon fill="red" stroke="red" stroke-width="0.12" points="158.72,-141.34 153.34,-132.21 151.85,-142.7 158.72,-141.34"/>
</g>
<!-- &#45;11 -->
<g id="node11" class="node">
<title>&#45;11</title>
<polygon fill="lightgray" stroke="black" points="409.75,-285.92 381.75,-285.92 381.75,-266.67 409.75,-266.67 409.75,-285.92"/>
<text text-anchor="middle" x="395.75" y="-273.37" font-family="Times New Roman,serif" font-size="9.00">&#45;11</text>
</g>
<!-- 5707 -->
<g id="node13" class="node">
<title>5707</title>
<ellipse fill="none" stroke="black" cx="395.75" cy="-192.21" rx="24.04" ry="24.04"/>
<text text-anchor="middle" x="395.75" y="-189.28" font-family="Times New Roman,serif" font-size="9.00">5707</text>
</g>
<!-- &#45;11&#45;&gt;5707 -->
<g id="edge4" class="edge">
<title>&#45;11&#45;&gt;5707</title>
<path fill="none" stroke="red" stroke-width="0.5" stroke-dasharray="1,5" d="M395.75,-266.19C395.75,-256.75 395.75,-241.39 395.75,-227.2"/>
<polygon fill="red" stroke="red" stroke-width="0.5" points="399.25,-227.45 395.75,-217.45 392.25,-227.45 399.25,-227.45"/>
</g>
<!-- 0&#45;&gt;5840 -->
<g id="edge14" class="edge">
<title>0&#45;&gt;5840</title>
<path fill="none" stroke="red" stroke-width="0.27" stroke-dasharray="1,5" d="M121.75,-178.38C125.74,-168.15 131.5,-153.38 136.67,-140.11"/>
<polygon fill="red" stroke="red" stroke-width="0.27" points="139.78,-141.77 140.15,-131.18 133.26,-139.22 139.78,-141.77"/>
</g>
<!-- 5133 -->
<g id="node14" class="node">
<title>5133</title>
<ellipse fill="none" stroke="black" cx="395.75" cy="-108.12" rx="24.04" ry="24.04"/>
<text text-anchor="middle" x="395.75" y="-105.2" font-family="Times New Roman,serif" font-size="9.00">5133</text>
</g>
<!-- 5707&#45;&gt;5133 -->
<g id="edge5" class="edge">
<title>5707&#45;&gt;5133</title>
<path fill="none" stroke="green" stroke-width="0.35" d="M395.75,-167.91C395.75,-160.11 395.75,-151.25 395.75,-142.82"/>
<polygon fill="green" stroke="green" stroke-width="0.35" points="399.25,-143.01 395.75,-133.01 392.25,-143.01 399.25,-143.01"/>
</g>
<!-- 5053 -->
<g id="node16" class="node">
<title>5053</title>
<ellipse fill="none" stroke="black" cx="181.75" cy="-24.04" rx="24.04" ry="24.04"/>
<text text-anchor="middle" x="181.75" y="-21.12" font-family="Times New Roman,serif" font-size="9.00">5053</text>
</g>
<!-- 5840&#45;&gt;5053 -->
<g id="edge6" class="edge">
<title>5840&#45;&gt;5053</title>
<path fill="none" stroke="red" stroke-width="0.79" stroke-dasharray="1,5" d="M157.42,-85.56C160.92,-76.86 165.02,-66.65 168.86,-57.11"/>
<polygon fill="red" stroke="red" stroke-width="0.79" points="172.09,-58.44 172.58,-47.86 165.6,-55.83 172.09,-58.44"/>
</g>
<!-- 4262 -->
<g id="node17" class="node">
<title>4262</title>
<ellipse fill="none" stroke="black" cx="461.75" cy="-276.29" rx="24.04" ry="24.04"/>
<text text-anchor="middle" x="461.75" y="-273.37" font-family="Times New Roman,serif" font-size="9.00">4262</text>
</g>
<!-- 6243 -->
<g id="node18" class="node">
<title>6243</title>
<ellipse fill="none" stroke="black" cx="461.75" cy="-192.21" rx="24.04" ry="24.04"/>
<text text-anchor="middle" x="461.75" y="-189.28" font-family="Times New Roman,serif" font-size="9.00">6243</text>
</g>
<!-- 4262&#45;&gt;6243 -->
<g id="edge8" class="edge">
<title>4262&#45;&gt;6243</title>
<path fill="none" stroke="red" stroke-width="0.43" d="M461.75,-251.99C461.75,-244.28 461.75,-235.53 461.75,-227.19"/>
<polygon fill="red" stroke="red" stroke-width="0.43" points="465.25,-227.22 461.75,-217.22 458.25,-227.22 465.25,-227.22"/>
</g>
<!-- 4953 -->
<g id="node19" class="node">
<title>4953</title>
<ellipse fill="none" stroke="black" cx="527.75" cy="-192.21" rx="24.04" ry="24.04"/>
<text text-anchor="middle" x="527.75" y="-189.28" font-family="Times New Roman,serif" font-size="9.00">4953</text>
</g>
<!-- 4129 -->
<g id="node20" class="node">
<title>4129</title>
<ellipse fill="none" stroke="black" cx="579.75" cy="-108.12" rx="24.04" ry="24.04"/>
<text text-anchor="middle" x="579.75" y="-105.2" font-family="Times New Roman,serif" font-size="9.00">4129</text>
</g>
<!-- 4953&#45;&gt;4129 -->
<g id="edge10" class="edge">
<title>4953&#45;&gt;4129</title>
<path fill="none" stroke="green" stroke-width="0.46" stroke-dasharray="1,5" d="M540.34,-171.34C546.68,-161.33 554.48,-149.01 561.47,-137.98"/>
<polygon fill="green" stroke="green" stroke-width="0.46" points="564.33,-140 566.73,-129.68 558.42,-136.26 564.33,-140"/>
</g>
<!-- 6087&#45;&gt;5053 -->
<g id="edge11" class="edge">
<title>6087&#45;&gt;5053</title>
<path fill="none" stroke="red" stroke-width="1.32" stroke-dasharray="1,5" d="M206.08,-85.56C202.66,-77.05 198.65,-67.08 194.89,-57.73"/>
<polygon fill="red" stroke="red" stroke-width="1.32" points="198.2,-56.58 191.22,-48.61 191.71,-59.19 198.2,-56.58"/>
</g>
<!-- 6750 -->
<g id="node22" class="node">
<title>6750</title>
<ellipse fill="none" stroke="black" cx="553.75" cy="-276.29" rx="24.04" ry="24.04"/>
<text text-anchor="middle" x="553.75" y="-273.37" font-family="Times New Roman,serif" font-size="9.00">6750</text>
</g>
<!-- 6750&#45;&gt;4953 -->
<g id="edge17" class="edge">
<title>6750&#45;&gt;4953</title>
<path fill="none" stroke="red" stroke-width="0.3" d="M546.65,-252.86C543.98,-244.45 540.89,-234.71 538,-225.57"/>
<polygon fill="red" stroke="red" stroke-width="0.3" points="541.34,-224.51 534.98,-216.04 534.66,-226.63 541.34,-224.51"/>
</g>
<!-- 6750&#45;&gt;4129 -->
<g id="edge12" class="edge">
<title>6750&#45;&gt;4129</title>
<path fill="none" stroke="red" stroke-width="0.51" d="M557.37,-252.19C561.82,-223.74 569.41,-175.22 574.5,-142.67"/>
<polygon fill="red" stroke="red" stroke-width="0.51" points="577.92,-143.48 576.01,-133.06 571,-142.4 577.92,-143.48"/>
</g>
<!-- 6033 -->
<g id="node24" class="node">
<title>6033</title>
<ellipse fill="none" stroke="black" cx="631.75" cy="-192.21" rx="24.04" ry="24.04"/>
<text text-anchor="middle" x="631.75" y="-189.28" font-family="Times New Roman,serif" font-size="9.00">6033</text>
</g>
<!-- 6033&#45;&gt;4129 -->
<g id="edge16" class="edge">
<title>6033&#45;&gt;4129</title>
<path fill="none" stroke="red" stroke-width="0.49" d="M619.16,-171.34C612.82,-161.33 605.02,-149.01 598.03,-137.98"/>
<polygon fill="red" stroke="red" stroke-width="0.49" points="601.11,-136.3 592.8,-129.72 595.19,-140.04 601.11,-136.3"/>
</g>
</g>
</svg>
