<?xml version="1.0" encoding="UTF-8" standalone="no"?>
<!DOCTYPE svg PUBLIC "-//W3C//DTD SVG 1.1//EN"
 "http://www.w3.org/Graphics/SVG/1.1/DTD/svg11.dtd">
<!-- Generated by graphviz version 9.0.0 (20230911.1827)
 -->
<!-- Pages: 1 -->
<svg width="809pt" height="308pt"
 viewBox="0.00 0.00 808.79 308.33" xmlns="http://www.w3.org/2000/svg" xmlns:xlink="http://www.w3.org/1999/xlink">
<g id="graph0" class="graph" transform="scale(1 1) rotate(0) translate(4 304.33)">
<polygon fill="white" stroke="none" points="-4,4 -4,-304.33 804.79,-304.33 804.79,4 -4,4"/>
<!-- &#45;1 -->
<g id="node1" class="node">
<title>&#45;1</title>
<polygon fill="lightgray" stroke="black" points="23.5,-285.92 0,-285.92 0,-266.67 23.5,-266.67 23.5,-285.92"/>
<text text-anchor="middle" x="11.75" y="-273.37" font-family="Times New Roman,serif" font-size="9.00">&#45;1</text>
</g>
<!-- 0 -->
<g id="node12" class="node">
<title>0</title>
<ellipse fill="lightblue" stroke="black" cx="106.75" cy="-192.21" rx="14.5" ry="14.5"/>
<text text-anchor="middle" x="106.75" y="-189.28" font-family="Times New Roman,serif" font-size="9.00">0</text>
</g>
<!-- &#45;1&#45;&gt;0 -->
<g id="edge1" class="edge">
<title>&#45;1&#45;&gt;0</title>
<path fill="none" stroke="green" stroke-width="2.56" d="M19.22,-266.45C23.1,-262.03 28.01,-256.69 32.75,-252.25 49.22,-236.83 69.31,-220.96 84.4,-209.57"/>
<polygon fill="green" stroke="green" stroke-width="2.56" points="86.22,-212.58 92.15,-203.8 82.04,-206.96 86.22,-212.58"/>
</g>
<!-- &#45;2 -->
<g id="node2" class="node">
<title>&#45;2</title>
<polygon fill="lightgray" stroke="black" points="65.5,-285.92 42,-285.92 42,-266.67 65.5,-266.67 65.5,-285.92"/>
<text text-anchor="middle" x="53.75" y="-273.37" font-family="Times New Roman,serif" font-size="9.00">&#45;2</text>
</g>
<!-- &#45;2&#45;&gt;0 -->
<g id="edge2" class="edge">
<title>&#45;2&#45;&gt;0</title>
<path fill="none" stroke="red" stroke-width="2.19" d="M59.62,-266.19C67.39,-254.17 81.33,-232.57 92.05,-215.98"/>
<polygon fill="red" stroke="red" stroke-width="2.19" points="94.86,-218.07 97.35,-207.77 88.98,-214.27 94.86,-218.07"/>
</g>
<!-- &#45;3 -->
<g id="node3" class="node">
<title>&#45;3</title>
<polygon fill="lightgray" stroke="black" points="237.5,-201.83 214,-201.83 214,-182.58 237.5,-182.58 237.5,-201.83"/>
<text text-anchor="middle" x="225.75" y="-189.28" font-family="Times New Roman,serif" font-size="9.00">&#45;3</text>
</g>
<!-- 6498 -->
<g id="node14" class="node">
<title>6498</title>
<ellipse fill="white" stroke="black" cx="183.75" cy="-108.12" rx="24.04" ry="24.04"/>
<text text-anchor="middle" x="183.75" y="-105.2" font-family="Times New Roman,serif" font-size="9.00">6498</text>
</g>
<!-- &#45;3&#45;&gt;6498 -->
<g id="edge15" class="edge">
<title>&#45;3&#45;&gt;6498</title>
<path fill="none" stroke="green" stroke-width="0.32" d="M221.09,-182.11C215.79,-171.74 206.84,-154.25 199.03,-138.99"/>
<polygon fill="green" stroke="green" stroke-width="0.32" points="202.25,-137.61 194.58,-130.3 196.02,-140.79 202.25,-137.61"/>
</g>
<!-- 6087 -->
<g id="node17" class="node">
<title>6087</title>
<ellipse fill="white" stroke="black" cx="249.75" cy="-108.12" rx="24.04" ry="24.04"/>
<text text-anchor="middle" x="249.75" y="-105.2" font-family="Times New Roman,serif" font-size="9.00">6087</text>
</g>
<!-- &#45;3&#45;&gt;6087 -->
<g id="edge18" class="edge">
<title>&#45;3&#45;&gt;6087</title>
<path fill="none" stroke="red" stroke-width="0.31" d="M228.41,-182.11C231.29,-172.27 236.03,-156.03 240.32,-141.37"/>
<polygon fill="red" stroke="red" stroke-width="0.31" points="243.61,-142.59 243.06,-132.01 236.89,-140.63 243.61,-142.59"/>
</g>
<!-- &#45;4 -->
<g id="node4" class="node">
<title>&#45;4</title>
<polygon fill="lightgray" stroke="black" points="107.5,-285.92 84,-285.92 84,-266.67 107.5,-266.67 107.5,-285.92"/>
<text text-anchor="middle" x="95.75" y="-273.37" font-family="Times New Roman,serif" font-size="9.00">&#45;4</text>
</g>
<!-- &#45;4&#45;&gt;0 -->
<g id="edge7" class="edge">
<title>&#45;4&#45;&gt;0</title>
<path fill="none" stroke="red" stroke-width="1.52" d="M96.97,-266.19C98.49,-254.86 101.14,-235.03 103.31,-218.9"/>
<polygon fill="red" stroke="red" stroke-width="1.52" points="106.74,-219.64 104.6,-209.26 99.8,-218.71 106.74,-219.64"/>
</g>
<!-- &#45;5 -->
<g id="node5" class="node">
<title>&#45;5</title>
<polygon fill="lightgray" stroke="black" points="237.5,-285.92 214,-285.92 214,-266.67 237.5,-266.67 237.5,-285.92"/>
<text text-anchor="middle" x="225.75" y="-273.37" font-family="Times New Roman,serif" font-size="9.00">&#45;5</text>
</g>
<!-- &#45;6 -->
<g id="node6" class="node">
<title>&#45;6</title>
<polygon fill="lightgray" stroke="black" points="149.5,-285.92 126,-285.92 126,-266.67 149.5,-266.67 149.5,-285.92"/>
<text text-anchor="middle" x="137.75" y="-273.37" font-family="Times New Roman,serif" font-size="9.00">&#45;6</text>
</g>
<!-- &#45;6&#45;&gt;0 -->
<g id="edge3" class="edge">
<title>&#45;6&#45;&gt;0</title>
<path fill="none" stroke="red" stroke-width="0.74" d="M134.31,-266.19C129.79,-254.21 121.67,-232.72 115.41,-216.15"/>
<polygon fill="red" stroke="red" stroke-width="0.74" points="118.83,-215.28 112.02,-207.16 112.28,-217.75 118.83,-215.28"/>
</g>
<!-- &#45;7 -->
<g id="node7" class="node">
<title>&#45;7</title>
<polygon fill="lightgray" stroke="black" points="279.5,-285.92 256,-285.92 256,-266.67 279.5,-266.67 279.5,-285.92"/>
<text text-anchor="middle" x="267.75" y="-273.37" font-family="Times New Roman,serif" font-size="9.00">&#45;7</text>
</g>
<!-- &#45;8 -->
<g id="node8" class="node">
<title>&#45;8</title>
<polygon fill="lightgray" stroke="black" points="321.5,-285.92 298,-285.92 298,-266.67 321.5,-266.67 321.5,-285.92"/>
<text text-anchor="middle" x="309.75" y="-273.37" font-family="Times New Roman,serif" font-size="9.00">&#45;8</text>
</g>
<!-- &#45;9 -->
<g id="node9" class="node">
<title>&#45;9</title>
<polygon fill="lightgray" stroke="black" points="363.5,-285.92 340,-285.92 340,-266.67 363.5,-266.67 363.5,-285.92"/>
<text text-anchor="middle" x="351.75" y="-273.37" font-family="Times New Roman,serif" font-size="9.00">&#45;9</text>
</g>
<!-- &#45;10 -->
<g id="node10" class="node">
<title>&#45;10</title>
<polygon fill="lightgray" stroke="black" points="195.75,-285.92 167.75,-285.92 167.75,-266.67 195.75,-266.67 195.75,-285.92"/>
<text text-anchor="middle" x="181.75" y="-273.37" font-family="Times New Roman,serif" font-size="9.00">&#45;10</text>
</g>
<!-- &#45;10&#45;&gt;0 -->
<g id="edge9" class="edge">
<title>&#45;10&#45;&gt;0</title>
<path fill="none" stroke="green" stroke-width="1.04" d="M173.44,-266.19C161.49,-253.11 139.18,-228.7 123.68,-211.73"/>
<polygon fill="green" stroke="green" stroke-width="1.04" points="126.67,-209.82 117.34,-204.8 121.5,-214.54 126.67,-209.82"/>
</g>
<!-- 5840 -->
<g id="node21" class="node">
<title>5840</title>
<ellipse fill="white" stroke="black" cx="117.75" cy="-108.12" rx="24.04" ry="24.04"/>
<text text-anchor="middle" x="117.75" y="-105.2" font-family="Times New Roman,serif" font-size="9.00">5840</text>
</g>
<!-- &#45;10&#45;&gt;5840 -->
<g id="edge13" class="edge">
<title>&#45;10&#45;&gt;5840</title>
<path fill="none" stroke="red" stroke-width="0.12" d="M178.31,-266.36C169.31,-242.99 144.74,-179.2 129.81,-140.43"/>
<polygon fill="red" stroke="red" stroke-width="0.12" points="133.16,-139.39 126.3,-131.31 126.62,-141.9 133.16,-139.39"/>
</g>
<!-- &#45;11 -->
<g id="node11" class="node">
<title>&#45;11</title>
<polygon fill="lightgray" stroke="black" points="409.75,-285.92 381.75,-285.92 381.75,-266.67 409.75,-266.67 409.75,-285.92"/>
<text text-anchor="middle" x="395.75" y="-273.37" font-family="Times New Roman,serif" font-size="9.00">&#45;11</text>
</g>
<!-- 5707 -->
<g id="node19" class="node">
<title>5707</title>
<ellipse fill="white" stroke="black" cx="395.75" cy="-192.21" rx="24.04" ry="24.04"/>
<text text-anchor="middle" x="395.75" y="-189.28" font-family="Times New Roman,serif" font-size="9.00">5707</text>
</g>
<!-- &#45;11&#45;&gt;5707 -->
<g id="edge4" class="edge">
<title>&#45;11&#45;&gt;5707</title>
<path fill="none" stroke="red" stroke-width="0.5" stroke-dasharray="1,5" d="M395.75,-266.19C395.75,-256.75 395.75,-241.39 395.75,-227.2"/>
<polygon fill="red" stroke="red" stroke-width="0.5" points="399.25,-227.45 395.75,-217.45 392.25,-227.45 399.25,-227.45"/>
</g>
<!-- 0&#45;&gt;5840 -->
<g id="edge14" class="edge">
<title>0&#45;&gt;5840</title>
<path fill="none" stroke="red" stroke-width="0.27" stroke-dasharray="1,5" d="M108.57,-177.65C109.85,-168.05 111.64,-154.73 113.29,-142.38"/>
<polygon fill="red" stroke="red" stroke-width="0.27" points="116.73,-143.12 114.58,-132.74 109.79,-142.19 116.73,-143.12"/>
</g>
<!-- 4129 -->
<g id="node13" class="node">
<title>4129</title>
<ellipse fill="white" stroke="black" cx="513.75" cy="-108.12" rx="24.04" ry="24.04"/>
<text text-anchor="middle" x="513.75" y="-105.2" font-family="Times New Roman,serif" font-size="9.00">4129</text>
</g>
<!-- 6243 -->
<g id="node15" class="node">
<title>6243</title>
<ellipse fill="white" stroke="black" cx="644.75" cy="-192.21" rx="24.04" ry="24.04"/>
<text text-anchor="middle" x="644.75" y="-189.28" font-family="Times New Roman,serif" font-size="9.00">6243</text>
</g>
<!-- 4262 -->
<g id="node16" class="node">
<title>4262</title>
<ellipse fill="white" stroke="black" cx="644.75" cy="-276.29" rx="24.04" ry="24.04"/>
<text text-anchor="middle" x="644.75" y="-273.37" font-family="Times New Roman,serif" font-size="9.00">4262</text>
</g>
<!-- 4262&#45;&gt;6243 -->
<g id="edge8" class="edge">
<title>4262&#45;&gt;6243</title>
<path fill="none" stroke="red" stroke-width="0.43" d="M644.75,-251.99C644.75,-244.28 644.75,-235.53 644.75,-227.19"/>
<polygon fill="red" stroke="red" stroke-width="0.43" points="648.25,-227.22 644.75,-217.22 641.25,-227.22 648.25,-227.22"/>
</g>
<!-- 5053 -->
<g id="node25" class="node">
<title>5053</title>
<ellipse fill="white" stroke="black" cx="183.75" cy="-24.04" rx="24.04" ry="24.04"/>
<text text-anchor="middle" x="183.75" y="-21.12" font-family="Times New Roman,serif" font-size="9.00">5053</text>
</g>
<!-- 6087&#45;&gt;5053 -->
<g id="edge11" class="edge">
<title>6087&#45;&gt;5053</title>
<path fill="none" stroke="red" stroke-width="1.32" stroke-dasharray="1,5" d="M235.1,-88.91C226.53,-78.25 215.54,-64.58 205.93,-52.62"/>
<polygon fill="red" stroke="red" stroke-width="1.32" points="208.83,-50.65 199.84,-45.05 203.38,-55.04 208.83,-50.65"/>
</g>
<!-- 5497 -->
<g id="node18" class="node">
<title>5497</title>
<ellipse fill="white" stroke="black" cx="710.75" cy="-276.29" rx="24.04" ry="24.04"/>
<text text-anchor="middle" x="710.75" y="-273.37" font-family="Times New Roman,serif" font-size="9.00">5497</text>
</g>
<!-- 5133 -->
<g id="node20" class="node">
<title>5133</title>
<ellipse fill="white" stroke="black" cx="395.75" cy="-108.12" rx="24.04" ry="24.04"/>
<text text-anchor="middle" x="395.75" y="-105.2" font-family="Times New Roman,serif" font-size="9.00">5133</text>
</g>
<!-- 5707&#45;&gt;5133 -->
<g id="edge5" class="edge">
<title>5707&#45;&gt;5133</title>
<path fill="none" stroke="green" stroke-width="0.35" d="M395.75,-167.91C395.75,-160.11 395.75,-151.25 395.75,-142.82"/>
<polygon fill="green" stroke="green" stroke-width="0.35" points="399.25,-143.01 395.75,-133.01 392.25,-143.01 399.25,-143.01"/>
</g>
<!-- 5840&#45;&gt;5053 -->
<g id="edge6" class="edge">
<title>5840&#45;&gt;5053</title>
<path fill="none" stroke="red" stroke-width="0.79" stroke-dasharray="1,5" d="M132.4,-88.91C141.14,-78.04 152.4,-64.04 162.14,-51.91"/>
<polygon fill="red" stroke="red" stroke-width="0.79" points="164.63,-54.41 168.17,-44.42 159.17,-50.02 164.63,-54.41"/>
</g>
<!-- 6033 -->
<g id="node22" class="node">
<title>6033</title>
<ellipse fill="white" stroke="black" cx="461.75" cy="-192.21" rx="24.04" ry="24.04"/>
<text text-anchor="middle" x="461.75" y="-189.28" font-family="Times New Roman,serif" font-size="9.00">6033</text>
</g>
<!-- 6033&#45;&gt;4129 -->
<g id="edge16" class="edge">
<title>6033&#45;&gt;4129</title>
<path fill="none" stroke="red" stroke-width="0.49" d="M474.34,-171.34C480.68,-161.33 488.48,-149.01 495.47,-137.98"/>
<polygon fill="red" stroke="red" stroke-width="0.49" points="498.31,-140.04 500.7,-129.72 492.39,-136.3 498.31,-140.04"/>
</g>
<!-- 4953 -->
<g id="node23" class="node">
<title>4953</title>
<ellipse fill="white" stroke="black" cx="565.75" cy="-192.21" rx="24.04" ry="24.04"/>
<text text-anchor="middle" x="565.75" y="-189.28" font-family="Times New Roman,serif" font-size="9.00">4953</text>
</g>
<!-- 4953&#45;&gt;4129 -->
<g id="edge10" class="edge">
<title>4953&#45;&gt;4129</title>
<path fill="none" stroke="green" stroke-width="0.46" stroke-dasharray="1,5" d="M553.16,-171.34C546.82,-161.33 539.02,-149.01 532.03,-137.98"/>
<polygon fill="green" stroke="green" stroke-width="0.46" points="535.08,-136.26 526.77,-129.68 529.17,-140 535.08,-136.26"/>
</g>
<!-- 4570 -->
<g id="node24" class="node">
<title>4570</title>
<ellipse fill="white" stroke="black" cx="776.75" cy="-276.29" rx="24.04" ry="24.04"/>
<text text-anchor="middle" x="776.75" y="-273.37" font-family="Times New Roman,serif" font-size="9.00">4570</text>
</g>
<!-- 6750 -->
<g id="node26" class="node">
<title>6750</title>
<ellipse fill="white" stroke="black" cx="552.75" cy="-276.29" rx="24.04" ry="24.04"/>
<text text-anchor="middle" x="552.75" y="-273.37" font-family="Times New Roman,serif" font-size="9.00">6750</text>
</g>
<!-- 6750&#45;&gt;4129 -->
<g id="edge12" class="edge">
<title>6750&#45;&gt;4129</title>
<path fill="none" stroke="red" stroke-width="0.51" d="M544.45,-253.38C540.5,-242.36 535.95,-228.72 532.75,-216.25 526.52,-191.94 521.64,-164.02 518.38,-142.77"/>
<polygon fill="red" stroke="red" stroke-width="0.51" points="521.88,-142.46 516.94,-133.09 514.95,-143.49 521.88,-142.46"/>
</g>
<!-- 6750&#45;&gt;4953 -->
<g id="edge17" class="edge">
<title>6750&#45;&gt;4953</title>
<path fill="none" stroke="red" stroke-width="0.3" d="M556.37,-252.43C557.64,-244.4 559.1,-235.21 560.48,-226.5"/>
<polygon fill="red" stroke="red" stroke-width="0.3" points="563.93,-227.1 562.03,-216.68 557.01,-226.01 563.93,-227.1"/>
</g>
</g>
</svg>
