<?xml version="1.0" encoding="utf-8" standalone="no"?>
<!DOCTYPE svg PUBLIC "-//W3C//DTD SVG 1.1//EN"
  "http://www.w3.org/Graphics/SVG/1.1/DTD/svg11.dtd">
<svg xmlns:xlink="http://www.w3.org/1999/xlink" width="460.8pt" height="345.6pt" viewBox="0 0 460.8 345.6" xmlns="http://www.w3.org/2000/svg" version="1.1">
 <metadata>
  <rdf:RDF xmlns:dc="http://purl.org/dc/elements/1.1/" xmlns:cc="http://creativecommons.org/ns#" xmlns:rdf="http://www.w3.org/1999/02/22-rdf-syntax-ns#">
   <cc:Work>
    <dc:type rdf:resource="http://purl.org/dc/dcmitype/StillImage"/>
    <dc:date>2024-03-20T21:25:39.293838</dc:date>
    <dc:format>image/svg+xml</dc:format>
    <dc:creator>
     <cc:Agent>
      <dc:title>Matplotlib v3.8.3, https://matplotlib.org/</dc:title>
     </cc:Agent>
    </dc:creator>
   </cc:Work>
  </rdf:RDF>
 </metadata>
 <defs>
  <style type="text/css">*{stroke-linejoin: round; stroke-linecap: butt}</style>
 </defs>
 <g id="figure_1">
  <g id="patch_1">
   <path d="M 0 345.6 
L 460.8 345.6 
L 460.8 0 
L 0 0 
z
" style="fill: #ffffff"/>
  </g>
  <g id="axes_1">
   <g id="patch_2">
    <path d="M 57.6 307.584 
L 414.72 307.584 
L 414.72 41.472 
L 57.6 41.472 
z
" style="fill: #ffffff"/>
   </g>
   <g id="matplotlib.axis_1">
    <g id="xtick_1">
     <g id="line2d_1">
      <path d="M 73.832727 307.584 
L 73.832727 41.472 
" clip-path="url(#p5e0e391c8a)" style="fill: none; stroke: #b0b0b0; stroke-width: 0.8; stroke-linecap: square"/>
     </g>
     <g id="line2d_2">
      <defs>
       <path id="m001afc4986" d="M 0 0 
L 0 3.5 
" style="stroke: #000000; stroke-width: 0.8"/>
      </defs>
      <g>
       <use xlink:href="#m001afc4986" x="73.832727" y="307.584" style="stroke: #000000; stroke-width: 0.8"/>
      </g>
     </g>
     <g id="text_1">
      <!-- 0 -->
      <g transform="translate(70.651477 322.182437) scale(0.1 -0.1)">
       <defs>
        <path id="DejaVuSans-30" d="M 2034 4250 
Q 1547 4250 1301 3770 
Q 1056 3291 1056 2328 
Q 1056 1369 1301 889 
Q 1547 409 2034 409 
Q 2525 409 2770 889 
Q 3016 1369 3016 2328 
Q 3016 3291 2770 3770 
Q 2525 4250 2034 4250 
z
M 2034 4750 
Q 2819 4750 3233 4129 
Q 3647 3509 3647 2328 
Q 3647 1150 3233 529 
Q 2819 -91 2034 -91 
Q 1250 -91 836 529 
Q 422 1150 422 2328 
Q 422 3509 836 4129 
Q 1250 4750 2034 4750 
z
" transform="scale(0.015625)"/>
       </defs>
       <use xlink:href="#DejaVuSans-30"/>
      </g>
     </g>
    </g>
    <g id="xtick_2">
     <g id="line2d_3">
      <path d="M 128.122785 307.584 
L 128.122785 41.472 
" clip-path="url(#p5e0e391c8a)" style="fill: none; stroke: #b0b0b0; stroke-width: 0.8; stroke-linecap: square"/>
     </g>
     <g id="line2d_4">
      <g>
       <use xlink:href="#m001afc4986" x="128.122785" y="307.584" style="stroke: #000000; stroke-width: 0.8"/>
      </g>
     </g>
     <g id="text_2">
      <!-- 50 -->
      <g transform="translate(121.760285 322.182437) scale(0.1 -0.1)">
       <defs>
        <path id="DejaVuSans-35" d="M 691 4666 
L 3169 4666 
L 3169 4134 
L 1269 4134 
L 1269 2991 
Q 1406 3038 1543 3061 
Q 1681 3084 1819 3084 
Q 2600 3084 3056 2656 
Q 3513 2228 3513 1497 
Q 3513 744 3044 326 
Q 2575 -91 1722 -91 
Q 1428 -91 1123 -41 
Q 819 9 494 109 
L 494 744 
Q 775 591 1075 516 
Q 1375 441 1709 441 
Q 2250 441 2565 725 
Q 2881 1009 2881 1497 
Q 2881 1984 2565 2268 
Q 2250 2553 1709 2553 
Q 1456 2553 1204 2497 
Q 953 2441 691 2322 
L 691 4666 
z
" transform="scale(0.015625)"/>
       </defs>
       <use xlink:href="#DejaVuSans-35"/>
       <use xlink:href="#DejaVuSans-30" x="63.623047"/>
      </g>
     </g>
    </g>
    <g id="xtick_3">
     <g id="line2d_5">
      <path d="M 182.412843 307.584 
L 182.412843 41.472 
" clip-path="url(#p5e0e391c8a)" style="fill: none; stroke: #b0b0b0; stroke-width: 0.8; stroke-linecap: square"/>
     </g>
     <g id="line2d_6">
      <g>
       <use xlink:href="#m001afc4986" x="182.412843" y="307.584" style="stroke: #000000; stroke-width: 0.8"/>
      </g>
     </g>
     <g id="text_3">
      <!-- 100 -->
      <g transform="translate(172.869093 322.182437) scale(0.1 -0.1)">
       <defs>
        <path id="DejaVuSans-31" d="M 794 531 
L 1825 531 
L 1825 4091 
L 703 3866 
L 703 4441 
L 1819 4666 
L 2450 4666 
L 2450 531 
L 3481 531 
L 3481 0 
L 794 0 
L 794 531 
z
" transform="scale(0.015625)"/>
       </defs>
       <use xlink:href="#DejaVuSans-31"/>
       <use xlink:href="#DejaVuSans-30" x="63.623047"/>
       <use xlink:href="#DejaVuSans-30" x="127.246094"/>
      </g>
     </g>
    </g>
    <g id="xtick_4">
     <g id="line2d_7">
      <path d="M 236.702901 307.584 
L 236.702901 41.472 
" clip-path="url(#p5e0e391c8a)" style="fill: none; stroke: #b0b0b0; stroke-width: 0.8; stroke-linecap: square"/>
     </g>
     <g id="line2d_8">
      <g>
       <use xlink:href="#m001afc4986" x="236.702901" y="307.584" style="stroke: #000000; stroke-width: 0.8"/>
      </g>
     </g>
     <g id="text_4">
      <!-- 150 -->
      <g transform="translate(227.159151 322.182437) scale(0.1 -0.1)">
       <use xlink:href="#DejaVuSans-31"/>
       <use xlink:href="#DejaVuSans-35" x="63.623047"/>
       <use xlink:href="#DejaVuSans-30" x="127.246094"/>
      </g>
     </g>
    </g>
    <g id="xtick_5">
     <g id="line2d_9">
      <path d="M 290.992958 307.584 
L 290.992958 41.472 
" clip-path="url(#p5e0e391c8a)" style="fill: none; stroke: #b0b0b0; stroke-width: 0.8; stroke-linecap: square"/>
     </g>
     <g id="line2d_10">
      <g>
       <use xlink:href="#m001afc4986" x="290.992958" y="307.584" style="stroke: #000000; stroke-width: 0.8"/>
      </g>
     </g>
     <g id="text_5">
      <!-- 200 -->
      <g transform="translate(281.449208 322.182437) scale(0.1 -0.1)">
       <defs>
        <path id="DejaVuSans-32" d="M 1228 531 
L 3431 531 
L 3431 0 
L 469 0 
L 469 531 
Q 828 903 1448 1529 
Q 2069 2156 2228 2338 
Q 2531 2678 2651 2914 
Q 2772 3150 2772 3378 
Q 2772 3750 2511 3984 
Q 2250 4219 1831 4219 
Q 1534 4219 1204 4116 
Q 875 4013 500 3803 
L 500 4441 
Q 881 4594 1212 4672 
Q 1544 4750 1819 4750 
Q 2544 4750 2975 4387 
Q 3406 4025 3406 3419 
Q 3406 3131 3298 2873 
Q 3191 2616 2906 2266 
Q 2828 2175 2409 1742 
Q 1991 1309 1228 531 
z
" transform="scale(0.015625)"/>
       </defs>
       <use xlink:href="#DejaVuSans-32"/>
       <use xlink:href="#DejaVuSans-30" x="63.623047"/>
       <use xlink:href="#DejaVuSans-30" x="127.246094"/>
      </g>
     </g>
    </g>
    <g id="xtick_6">
     <g id="line2d_11">
      <path d="M 345.283016 307.584 
L 345.283016 41.472 
" clip-path="url(#p5e0e391c8a)" style="fill: none; stroke: #b0b0b0; stroke-width: 0.8; stroke-linecap: square"/>
     </g>
     <g id="line2d_12">
      <g>
       <use xlink:href="#m001afc4986" x="345.283016" y="307.584" style="stroke: #000000; stroke-width: 0.8"/>
      </g>
     </g>
     <g id="text_6">
      <!-- 250 -->
      <g transform="translate(335.739266 322.182437) scale(0.1 -0.1)">
       <use xlink:href="#DejaVuSans-32"/>
       <use xlink:href="#DejaVuSans-35" x="63.623047"/>
       <use xlink:href="#DejaVuSans-30" x="127.246094"/>
      </g>
     </g>
    </g>
    <g id="xtick_7">
     <g id="line2d_13">
      <path d="M 399.573074 307.584 
L 399.573074 41.472 
" clip-path="url(#p5e0e391c8a)" style="fill: none; stroke: #b0b0b0; stroke-width: 0.8; stroke-linecap: square"/>
     </g>
     <g id="line2d_14">
      <g>
       <use xlink:href="#m001afc4986" x="399.573074" y="307.584" style="stroke: #000000; stroke-width: 0.8"/>
      </g>
     </g>
     <g id="text_7">
      <!-- 300 -->
      <g transform="translate(390.029324 322.182437) scale(0.1 -0.1)">
       <defs>
        <path id="DejaVuSans-33" d="M 2597 2516 
Q 3050 2419 3304 2112 
Q 3559 1806 3559 1356 
Q 3559 666 3084 287 
Q 2609 -91 1734 -91 
Q 1441 -91 1130 -33 
Q 819 25 488 141 
L 488 750 
Q 750 597 1062 519 
Q 1375 441 1716 441 
Q 2309 441 2620 675 
Q 2931 909 2931 1356 
Q 2931 1769 2642 2001 
Q 2353 2234 1838 2234 
L 1294 2234 
L 1294 2753 
L 1863 2753 
Q 2328 2753 2575 2939 
Q 2822 3125 2822 3475 
Q 2822 3834 2567 4026 
Q 2313 4219 1838 4219 
Q 1578 4219 1281 4162 
Q 984 4106 628 3988 
L 628 4550 
Q 988 4650 1302 4700 
Q 1616 4750 1894 4750 
Q 2613 4750 3031 4423 
Q 3450 4097 3450 3541 
Q 3450 3153 3228 2886 
Q 3006 2619 2597 2516 
z
" transform="scale(0.015625)"/>
       </defs>
       <use xlink:href="#DejaVuSans-33"/>
       <use xlink:href="#DejaVuSans-30" x="63.623047"/>
       <use xlink:href="#DejaVuSans-30" x="127.246094"/>
      </g>
     </g>
    </g>
    <g id="text_8">
     <!-- Generations -->
     <g transform="translate(205.662344 335.860562) scale(0.1 -0.1)">
      <defs>
       <path id="DejaVuSans-47" d="M 3809 666 
L 3809 1919 
L 2778 1919 
L 2778 2438 
L 4434 2438 
L 4434 434 
Q 4069 175 3628 42 
Q 3188 -91 2688 -91 
Q 1594 -91 976 548 
Q 359 1188 359 2328 
Q 359 3472 976 4111 
Q 1594 4750 2688 4750 
Q 3144 4750 3555 4637 
Q 3966 4525 4313 4306 
L 4313 3634 
Q 3963 3931 3569 4081 
Q 3175 4231 2741 4231 
Q 1884 4231 1454 3753 
Q 1025 3275 1025 2328 
Q 1025 1384 1454 906 
Q 1884 428 2741 428 
Q 3075 428 3337 486 
Q 3600 544 3809 666 
z
" transform="scale(0.015625)"/>
       <path id="DejaVuSans-65" d="M 3597 1894 
L 3597 1613 
L 953 1613 
Q 991 1019 1311 708 
Q 1631 397 2203 397 
Q 2534 397 2845 478 
Q 3156 559 3463 722 
L 3463 178 
Q 3153 47 2828 -22 
Q 2503 -91 2169 -91 
Q 1331 -91 842 396 
Q 353 884 353 1716 
Q 353 2575 817 3079 
Q 1281 3584 2069 3584 
Q 2775 3584 3186 3129 
Q 3597 2675 3597 1894 
z
M 3022 2063 
Q 3016 2534 2758 2815 
Q 2500 3097 2075 3097 
Q 1594 3097 1305 2825 
Q 1016 2553 972 2059 
L 3022 2063 
z
" transform="scale(0.015625)"/>
       <path id="DejaVuSans-6e" d="M 3513 2113 
L 3513 0 
L 2938 0 
L 2938 2094 
Q 2938 2591 2744 2837 
Q 2550 3084 2163 3084 
Q 1697 3084 1428 2787 
Q 1159 2491 1159 1978 
L 1159 0 
L 581 0 
L 581 3500 
L 1159 3500 
L 1159 2956 
Q 1366 3272 1645 3428 
Q 1925 3584 2291 3584 
Q 2894 3584 3203 3211 
Q 3513 2838 3513 2113 
z
" transform="scale(0.015625)"/>
       <path id="DejaVuSans-72" d="M 2631 2963 
Q 2534 3019 2420 3045 
Q 2306 3072 2169 3072 
Q 1681 3072 1420 2755 
Q 1159 2438 1159 1844 
L 1159 0 
L 581 0 
L 581 3500 
L 1159 3500 
L 1159 2956 
Q 1341 3275 1631 3429 
Q 1922 3584 2338 3584 
Q 2397 3584 2469 3576 
Q 2541 3569 2628 3553 
L 2631 2963 
z
" transform="scale(0.015625)"/>
       <path id="DejaVuSans-61" d="M 2194 1759 
Q 1497 1759 1228 1600 
Q 959 1441 959 1056 
Q 959 750 1161 570 
Q 1363 391 1709 391 
Q 2188 391 2477 730 
Q 2766 1069 2766 1631 
L 2766 1759 
L 2194 1759 
z
M 3341 1997 
L 3341 0 
L 2766 0 
L 2766 531 
Q 2569 213 2275 61 
Q 1981 -91 1556 -91 
Q 1019 -91 701 211 
Q 384 513 384 1019 
Q 384 1609 779 1909 
Q 1175 2209 1959 2209 
L 2766 2209 
L 2766 2266 
Q 2766 2663 2505 2880 
Q 2244 3097 1772 3097 
Q 1472 3097 1187 3025 
Q 903 2953 641 2809 
L 641 3341 
Q 956 3463 1253 3523 
Q 1550 3584 1831 3584 
Q 2591 3584 2966 3190 
Q 3341 2797 3341 1997 
z
" transform="scale(0.015625)"/>
       <path id="DejaVuSans-74" d="M 1172 4494 
L 1172 3500 
L 2356 3500 
L 2356 3053 
L 1172 3053 
L 1172 1153 
Q 1172 725 1289 603 
Q 1406 481 1766 481 
L 2356 481 
L 2356 0 
L 1766 0 
Q 1100 0 847 248 
Q 594 497 594 1153 
L 594 3053 
L 172 3053 
L 172 3500 
L 594 3500 
L 594 4494 
L 1172 4494 
z
" transform="scale(0.015625)"/>
       <path id="DejaVuSans-69" d="M 603 3500 
L 1178 3500 
L 1178 0 
L 603 0 
L 603 3500 
z
M 603 4863 
L 1178 4863 
L 1178 4134 
L 603 4134 
L 603 4863 
z
" transform="scale(0.015625)"/>
       <path id="DejaVuSans-6f" d="M 1959 3097 
Q 1497 3097 1228 2736 
Q 959 2375 959 1747 
Q 959 1119 1226 758 
Q 1494 397 1959 397 
Q 2419 397 2687 759 
Q 2956 1122 2956 1747 
Q 2956 2369 2687 2733 
Q 2419 3097 1959 3097 
z
M 1959 3584 
Q 2709 3584 3137 3096 
Q 3566 2609 3566 1747 
Q 3566 888 3137 398 
Q 2709 -91 1959 -91 
Q 1206 -91 779 398 
Q 353 888 353 1747 
Q 353 2609 779 3096 
Q 1206 3584 1959 3584 
z
" transform="scale(0.015625)"/>
       <path id="DejaVuSans-73" d="M 2834 3397 
L 2834 2853 
Q 2591 2978 2328 3040 
Q 2066 3103 1784 3103 
Q 1356 3103 1142 2972 
Q 928 2841 928 2578 
Q 928 2378 1081 2264 
Q 1234 2150 1697 2047 
L 1894 2003 
Q 2506 1872 2764 1633 
Q 3022 1394 3022 966 
Q 3022 478 2636 193 
Q 2250 -91 1575 -91 
Q 1294 -91 989 -36 
Q 684 19 347 128 
L 347 722 
Q 666 556 975 473 
Q 1284 391 1588 391 
Q 1994 391 2212 530 
Q 2431 669 2431 922 
Q 2431 1156 2273 1281 
Q 2116 1406 1581 1522 
L 1381 1569 
Q 847 1681 609 1914 
Q 372 2147 372 2553 
Q 372 3047 722 3315 
Q 1072 3584 1716 3584 
Q 2034 3584 2315 3537 
Q 2597 3491 2834 3397 
z
" transform="scale(0.015625)"/>
      </defs>
      <use xlink:href="#DejaVuSans-47"/>
      <use xlink:href="#DejaVuSans-65" x="77.490234"/>
      <use xlink:href="#DejaVuSans-6e" x="139.013672"/>
      <use xlink:href="#DejaVuSans-65" x="202.392578"/>
      <use xlink:href="#DejaVuSans-72" x="263.916016"/>
      <use xlink:href="#DejaVuSans-61" x="305.029297"/>
      <use xlink:href="#DejaVuSans-74" x="366.308594"/>
      <use xlink:href="#DejaVuSans-69" x="405.517578"/>
      <use xlink:href="#DejaVuSans-6f" x="433.300781"/>
      <use xlink:href="#DejaVuSans-6e" x="494.482422"/>
      <use xlink:href="#DejaVuSans-73" x="557.861328"/>
     </g>
    </g>
   </g>
   <g id="matplotlib.axis_2">
    <g id="ytick_1">
     <g id="line2d_15">
      <path d="M 57.6 296.477517 
L 414.72 296.477517 
" clip-path="url(#p5e0e391c8a)" style="fill: none; stroke: #b0b0b0; stroke-width: 0.8; stroke-linecap: square"/>
     </g>
     <g id="line2d_16">
      <defs>
       <path id="m4cd051e882" d="M 0 0 
L -3.5 0 
" style="stroke: #000000; stroke-width: 0.8"/>
      </defs>
      <g>
       <use xlink:href="#m4cd051e882" x="57.6" y="296.477517" style="stroke: #000000; stroke-width: 0.8"/>
      </g>
     </g>
     <g id="text_9">
      <!-- 0.0 -->
      <g transform="translate(34.696875 300.276736) scale(0.1 -0.1)">
       <defs>
        <path id="DejaVuSans-2e" d="M 684 794 
L 1344 794 
L 1344 0 
L 684 0 
L 684 794 
z
" transform="scale(0.015625)"/>
       </defs>
       <use xlink:href="#DejaVuSans-30"/>
       <use xlink:href="#DejaVuSans-2e" x="63.623047"/>
       <use xlink:href="#DejaVuSans-30" x="95.410156"/>
      </g>
     </g>
    </g>
    <g id="ytick_2">
     <g id="line2d_17">
      <path d="M 57.6 261.777081 
L 414.72 261.777081 
" clip-path="url(#p5e0e391c8a)" style="fill: none; stroke: #b0b0b0; stroke-width: 0.8; stroke-linecap: square"/>
     </g>
     <g id="line2d_18">
      <g>
       <use xlink:href="#m4cd051e882" x="57.6" y="261.777081" style="stroke: #000000; stroke-width: 0.8"/>
      </g>
     </g>
     <g id="text_10">
      <!-- 2.5 -->
      <g transform="translate(34.696875 265.576299) scale(0.1 -0.1)">
       <use xlink:href="#DejaVuSans-32"/>
       <use xlink:href="#DejaVuSans-2e" x="63.623047"/>
       <use xlink:href="#DejaVuSans-35" x="95.410156"/>
      </g>
     </g>
    </g>
    <g id="ytick_3">
     <g id="line2d_19">
      <path d="M 57.6 227.076644 
L 414.72 227.076644 
" clip-path="url(#p5e0e391c8a)" style="fill: none; stroke: #b0b0b0; stroke-width: 0.8; stroke-linecap: square"/>
     </g>
     <g id="line2d_20">
      <g>
       <use xlink:href="#m4cd051e882" x="57.6" y="227.076644" style="stroke: #000000; stroke-width: 0.8"/>
      </g>
     </g>
     <g id="text_11">
      <!-- 5.0 -->
      <g transform="translate(34.696875 230.875863) scale(0.1 -0.1)">
       <use xlink:href="#DejaVuSans-35"/>
       <use xlink:href="#DejaVuSans-2e" x="63.623047"/>
       <use xlink:href="#DejaVuSans-30" x="95.410156"/>
      </g>
     </g>
    </g>
    <g id="ytick_4">
     <g id="line2d_21">
      <path d="M 57.6 192.376207 
L 414.72 192.376207 
" clip-path="url(#p5e0e391c8a)" style="fill: none; stroke: #b0b0b0; stroke-width: 0.8; stroke-linecap: square"/>
     </g>
     <g id="line2d_22">
      <g>
       <use xlink:href="#m4cd051e882" x="57.6" y="192.376207" style="stroke: #000000; stroke-width: 0.8"/>
      </g>
     </g>
     <g id="text_12">
      <!-- 7.5 -->
      <g transform="translate(34.696875 196.175426) scale(0.1 -0.1)">
       <defs>
        <path id="DejaVuSans-37" d="M 525 4666 
L 3525 4666 
L 3525 4397 
L 1831 0 
L 1172 0 
L 2766 4134 
L 525 4134 
L 525 4666 
z
" transform="scale(0.015625)"/>
       </defs>
       <use xlink:href="#DejaVuSans-37"/>
       <use xlink:href="#DejaVuSans-2e" x="63.623047"/>
       <use xlink:href="#DejaVuSans-35" x="95.410156"/>
      </g>
     </g>
    </g>
    <g id="ytick_5">
     <g id="line2d_23">
      <path d="M 57.6 157.675771 
L 414.72 157.675771 
" clip-path="url(#p5e0e391c8a)" style="fill: none; stroke: #b0b0b0; stroke-width: 0.8; stroke-linecap: square"/>
     </g>
     <g id="line2d_24">
      <g>
       <use xlink:href="#m4cd051e882" x="57.6" y="157.675771" style="stroke: #000000; stroke-width: 0.8"/>
      </g>
     </g>
     <g id="text_13">
      <!-- 10.0 -->
      <g transform="translate(28.334375 161.47499) scale(0.1 -0.1)">
       <use xlink:href="#DejaVuSans-31"/>
       <use xlink:href="#DejaVuSans-30" x="63.623047"/>
       <use xlink:href="#DejaVuSans-2e" x="127.246094"/>
       <use xlink:href="#DejaVuSans-30" x="159.033203"/>
      </g>
     </g>
    </g>
    <g id="ytick_6">
     <g id="line2d_25">
      <path d="M 57.6 122.975334 
L 414.72 122.975334 
" clip-path="url(#p5e0e391c8a)" style="fill: none; stroke: #b0b0b0; stroke-width: 0.8; stroke-linecap: square"/>
     </g>
     <g id="line2d_26">
      <g>
       <use xlink:href="#m4cd051e882" x="57.6" y="122.975334" style="stroke: #000000; stroke-width: 0.8"/>
      </g>
     </g>
     <g id="text_14">
      <!-- 12.5 -->
      <g transform="translate(28.334375 126.774553) scale(0.1 -0.1)">
       <use xlink:href="#DejaVuSans-31"/>
       <use xlink:href="#DejaVuSans-32" x="63.623047"/>
       <use xlink:href="#DejaVuSans-2e" x="127.246094"/>
       <use xlink:href="#DejaVuSans-35" x="159.033203"/>
      </g>
     </g>
    </g>
    <g id="ytick_7">
     <g id="line2d_27">
      <path d="M 57.6 88.274897 
L 414.72 88.274897 
" clip-path="url(#p5e0e391c8a)" style="fill: none; stroke: #b0b0b0; stroke-width: 0.8; stroke-linecap: square"/>
     </g>
     <g id="line2d_28">
      <g>
       <use xlink:href="#m4cd051e882" x="57.6" y="88.274897" style="stroke: #000000; stroke-width: 0.8"/>
      </g>
     </g>
     <g id="text_15">
      <!-- 15.0 -->
      <g transform="translate(28.334375 92.074116) scale(0.1 -0.1)">
       <use xlink:href="#DejaVuSans-31"/>
       <use xlink:href="#DejaVuSans-35" x="63.623047"/>
       <use xlink:href="#DejaVuSans-2e" x="127.246094"/>
       <use xlink:href="#DejaVuSans-30" x="159.033203"/>
      </g>
     </g>
    </g>
    <g id="ytick_8">
     <g id="line2d_29">
      <path d="M 57.6 53.574461 
L 414.72 53.574461 
" clip-path="url(#p5e0e391c8a)" style="fill: none; stroke: #b0b0b0; stroke-width: 0.8; stroke-linecap: square"/>
     </g>
     <g id="line2d_30">
      <g>
       <use xlink:href="#m4cd051e882" x="57.6" y="53.574461" style="stroke: #000000; stroke-width: 0.8"/>
      </g>
     </g>
     <g id="text_16">
      <!-- 17.5 -->
      <g transform="translate(28.334375 57.37368) scale(0.1 -0.1)">
       <use xlink:href="#DejaVuSans-31"/>
       <use xlink:href="#DejaVuSans-37" x="63.623047"/>
       <use xlink:href="#DejaVuSans-2e" x="127.246094"/>
       <use xlink:href="#DejaVuSans-35" x="159.033203"/>
      </g>
     </g>
    </g>
    <g id="text_17">
     <!-- Fitness -->
     <g transform="translate(22.254687 191.845187) rotate(-90) scale(0.1 -0.1)">
      <defs>
       <path id="DejaVuSans-46" d="M 628 4666 
L 3309 4666 
L 3309 4134 
L 1259 4134 
L 1259 2759 
L 3109 2759 
L 3109 2228 
L 1259 2228 
L 1259 0 
L 628 0 
L 628 4666 
z
" transform="scale(0.015625)"/>
      </defs>
      <use xlink:href="#DejaVuSans-46"/>
      <use xlink:href="#DejaVuSans-69" x="50.269531"/>
      <use xlink:href="#DejaVuSans-74" x="78.052734"/>
      <use xlink:href="#DejaVuSans-6e" x="117.261719"/>
      <use xlink:href="#DejaVuSans-65" x="180.640625"/>
      <use xlink:href="#DejaVuSans-73" x="242.164062"/>
      <use xlink:href="#DejaVuSans-73" x="294.263672"/>
     </g>
    </g>
   </g>
   <g id="line2d_31">
    <path d="M 73.832727 258.402857 
L 74.918528 235.138712 
L 76.00433 215.161069 
L 77.090131 221.565937 
L 78.175932 223.22559 
L 79.261733 206.855589 
L 80.347534 216.970998 
L 81.433335 216.206015 
L 82.519137 221.443607 
L 83.604938 216.933568 
L 84.690739 209.570089 
L 85.77654 218.877579 
L 86.862341 210.324893 
L 87.948142 204.931149 
L 89.033943 203.313184 
L 90.119745 212.031229 
L 91.205546 201.168697 
L 92.291347 192.859284 
L 93.377148 193.905941 
L 94.462949 202.850002 
L 95.54875 197.727477 
L 96.634552 195.268836 
L 97.720353 195.922129 
L 98.806154 199.706189 
L 99.891955 187.706778 
L 100.977756 192.658808 
L 102.063557 188.977785 
L 103.149358 189.413623 
L 104.23516 191.369201 
L 105.320961 195.762461 
L 106.406762 192.091525 
L 107.492563 193.11107 
L 108.578364 197.285348 
L 109.664165 184.694734 
L 110.749967 187.361254 
L 111.835768 193.757053 
L 112.921569 193.237519 
L 114.00737 194.894071 
L 115.093171 173.830721 
L 116.178972 180.936491 
L 117.264773 191.173907 
L 118.350575 192.670652 
L 119.436376 184.461084 
L 120.522177 174.303341 
L 121.607978 193.675392 
L 122.693779 183.084957 
L 123.77958 182.322288 
L 124.865382 186.217805 
L 125.951183 177.390246 
L 127.036984 182.354074 
L 128.122785 182.890866 
L 129.208586 190.919205 
L 130.294387 184.887714 
L 131.380189 180.30499 
L 132.46599 182.416951 
L 133.551791 191.56579 
L 134.637592 183.574326 
L 135.723393 185.381849 
L 136.809194 190.31167 
L 137.894995 182.233594 
L 141.152399 178.988224 
L 142.2382 180.069859 
L 143.324001 183.945251 
L 144.409802 190.384862 
L 145.495604 175.919595 
L 146.581405 193.601064 
L 147.667206 180.574106 
L 148.753007 200.445599 
L 149.838808 183.58964 
L 150.924609 189.84542 
L 152.01041 184.622383 
L 154.182013 171.64649 
L 155.267814 180.456724 
L 156.353615 184.38472 
L 157.439416 180.88259 
L 158.525217 181.149645 
L 159.611019 173.946001 
L 160.69682 176.248416 
L 161.782621 175.609836 
L 162.868422 184.375675 
L 163.954223 177.894188 
L 165.040024 186.026536 
L 166.125825 188.085151 
L 167.211627 180.847751 
L 168.297428 175.21013 
L 169.383229 179.336994 
L 170.46903 175.455257 
L 172.640632 175.743502 
L 173.726434 174.255364 
L 174.812235 168.933232 
L 175.898036 175.574532 
L 176.983837 170.607467 
L 178.069638 180.902221 
L 179.155439 182.058842 
L 180.24124 186.078469 
L 181.327042 183.525468 
L 182.412843 179.589004 
L 183.498644 174.100922 
L 184.584445 181.380426 
L 185.670246 180.443775 
L 186.756047 177.358691 
L 187.841849 168.139202 
L 188.92765 169.642933 
L 190.013451 167.005856 
L 191.099252 154.422859 
L 192.185053 162.782526 
L 193.270854 161.609697 
L 194.356656 170.992272 
L 195.442457 173.919627 
L 196.528258 167.476146 
L 197.614059 149.540917 
L 198.69986 166.798839 
L 199.785661 158.03831 
L 200.871462 166.336907 
L 201.957264 172.139418 
L 203.043065 179.732288 
L 204.128866 171.975913 
L 205.214667 170.333056 
L 206.300468 175.17682 
L 207.386269 156.219093 
L 208.472071 178.246833 
L 209.557872 159.57069 
L 210.643673 154.348045 
L 211.729474 159.639494 
L 212.815275 162.931932 
L 213.901076 167.675132 
L 214.986877 161.511776 
L 217.15848 175.947996 
L 218.244281 155.73967 
L 219.330082 161.016802 
L 220.415883 175.260941 
L 221.501684 166.053973 
L 222.587486 153.175986 
L 223.673287 138.742747 
L 224.759088 165.994345 
L 225.844889 153.590141 
L 226.93069 148.05408 
L 228.016491 168.486843 
L 229.102292 174.016835 
L 230.188094 168.845771 
L 231.273895 153.350453 
L 232.359696 156.112481 
L 233.445497 172.187071 
L 234.531298 171.576766 
L 235.617099 162.871074 
L 236.702901 170.561015 
L 237.788702 161.310768 
L 238.874503 160.270762 
L 239.960304 168.328253 
L 241.046105 155.397433 
L 242.131906 164.896006 
L 243.217708 159.479731 
L 244.303509 165.094909 
L 245.38931 155.994974 
L 246.475111 165.981914 
L 247.560912 159.415311 
L 248.646713 157.009429 
L 249.732514 178.210977 
L 250.818316 150.375817 
L 251.904117 162.434062 
L 252.989918 177.30206 
L 254.075719 157.897483 
L 255.16152 170.139754 
L 256.247321 175.877677 
L 257.333123 171.040251 
L 258.418924 171.352385 
L 259.504725 167.221815 
L 260.590526 157.244791 
L 261.676327 161.986077 
L 262.762128 160.2681 
L 263.847929 171.389892 
L 264.933731 170.932946 
L 266.019532 172.412977 
L 267.105333 162.742264 
L 268.191134 171.821705 
L 269.276935 165.270295 
L 270.362736 171.21009 
L 271.448538 171.897434 
L 272.534339 160.065706 
L 273.62014 160.528845 
L 274.705941 166.199355 
L 275.791742 170.327272 
L 276.877543 168.853558 
L 277.963344 163.16848 
L 279.049146 179.874129 
L 282.306549 165.574923 
L 283.39235 174.949089 
L 284.478151 170.005278 
L 285.563953 174.996179 
L 286.649754 164.975308 
L 287.735555 156.85772 
L 288.821356 144.84718 
L 289.907157 150.686777 
L 290.992958 161.157459 
L 292.07876 162.205505 
L 293.164561 161.663823 
L 294.250362 150.208561 
L 295.336163 149.262755 
L 296.421964 152.219465 
L 297.507765 164.41219 
L 298.593566 161.582392 
L 299.679368 142.387999 
L 300.765169 161.912324 
L 301.85097 150.142537 
L 302.936771 155.742421 
L 304.022572 143.806351 
L 305.108373 158.92767 
L 306.194175 141.335428 
L 307.279976 161.226627 
L 308.365777 167.664373 
L 309.451578 137.578018 
L 310.537379 162.402248 
L 311.62318 150.003042 
L 312.708981 161.638931 
L 313.794783 139.868016 
L 314.880584 156.579653 
L 315.966385 133.938775 
L 317.052186 142.939513 
L 318.137987 147.288958 
L 319.223788 146.21764 
L 320.30959 140.25298 
L 321.395391 146.731947 
L 322.481192 140.36599 
L 323.566993 139.978733 
L 324.652794 138.840235 
L 325.738595 140.732704 
L 326.824396 137.436857 
L 327.910198 141.440593 
L 328.995999 152.204715 
L 330.0818 145.070629 
L 331.167601 141.34283 
L 332.253402 143.518964 
L 333.339203 153.142598 
L 334.425005 136.388194 
L 336.596607 152.348236 
L 337.682408 153.984747 
L 338.768209 143.468998 
L 339.85401 140.322314 
L 340.939811 145.204897 
L 342.025613 134.469646 
L 343.111414 141.905486 
L 344.197215 147.357619 
L 345.283016 134.348833 
L 346.368817 136.368176 
L 347.454618 144.450262 
L 348.54042 133.851006 
L 349.626221 139.730314 
L 350.712022 146.64242 
L 351.797823 149.637403 
L 352.883624 139.072154 
L 353.969425 147.066644 
L 355.055227 140.132241 
L 356.141028 154.560085 
L 357.226829 151.35211 
L 358.31263 139.886351 
L 359.398431 153.978462 
L 360.484232 152.305855 
L 361.570033 152.716384 
L 362.655835 145.804588 
L 363.741636 150.303825 
L 364.827437 143.543317 
L 365.913238 159.718822 
L 366.999039 158.146998 
L 368.08484 152.802851 
L 369.170642 150.429714 
L 370.256443 147.659688 
L 371.342244 150.03145 
L 372.428045 142.453402 
L 373.513846 151.689555 
L 374.599647 145.653793 
L 375.685448 143.919176 
L 376.77125 154.392877 
L 377.857051 152.885121 
L 378.942852 162.047471 
L 380.028653 142.378338 
L 381.114454 149.893837 
L 382.200255 146.043213 
L 383.286057 160.827642 
L 384.371858 149.105364 
L 385.457659 162.182599 
L 386.54346 143.529328 
L 387.629261 155.951067 
L 388.715062 153.606011 
L 389.800863 163.683203 
L 390.886665 157.340935 
L 391.972466 163.099079 
L 393.058267 152.587484 
L 394.144068 160.157388 
L 395.229869 147.257034 
L 396.31567 146.428804 
L 397.401472 153.825086 
L 398.487273 156.659464 
L 398.487273 156.659464 
" clip-path="url(#p5e0e391c8a)" style="fill: none; stroke: #0000ff; stroke-width: 1.5; stroke-linecap: square"/>
   </g>
   <g id="line2d_32">
    <path d="M 73.832727 295.488 
L 74.918528 272.038929 
L 76.00433 251.348354 
L 77.090131 263.138012 
L 78.175932 268.4571 
L 79.261733 243.832287 
L 80.347534 265.062643 
L 81.433335 267.510815 
L 82.519137 271.827844 
L 83.604938 272.479291 
L 84.690739 266.466974 
L 85.77654 272.727755 
L 86.862341 269.032293 
L 87.948142 264.03188 
L 89.033943 261.700509 
L 90.119745 271.392357 
L 91.205546 259.596448 
L 92.291347 252.586726 
L 93.377148 258.550309 
L 94.462949 266.824722 
L 95.54875 263.568194 
L 97.720353 258.760825 
L 98.806154 266.509669 
L 99.891955 253.524562 
L 100.977756 260.939699 
L 102.063557 257.37687 
L 103.149358 263.973313 
L 104.23516 262.386676 
L 105.320961 266.940027 
L 106.406762 263.632795 
L 107.492563 263.905832 
L 108.578364 265.425739 
L 109.664165 252.535802 
L 111.835768 264.169382 
L 112.921569 264.525531 
L 114.00737 260.26676 
L 115.093171 242.917938 
L 116.178972 252.480765 
L 117.264773 259.894044 
L 118.350575 259.913551 
L 119.436376 251.704955 
L 120.522177 240.848261 
L 121.607978 269.79635 
L 122.693779 252.507351 
L 123.77958 252.53509 
L 124.865382 265.266294 
L 125.951183 251.330086 
L 127.036984 254.950727 
L 128.122785 256.149812 
L 129.208586 262.048253 
L 130.294387 249.581091 
L 131.380189 253.960257 
L 132.46599 254.391198 
L 133.551791 265.304252 
L 134.637592 259.234145 
L 135.723393 263.901083 
L 136.809194 264.728792 
L 137.894995 257.500228 
L 138.980797 255.121445 
L 140.066598 257.267837 
L 141.152399 254.908651 
L 143.324001 262.210995 
L 144.409802 267.602551 
L 145.495604 249.787862 
L 146.581405 273.349502 
L 147.667206 252.767358 
L 148.753007 273.586648 
L 149.838808 252.182416 
L 150.924609 270.255485 
L 152.01041 262.613483 
L 153.096212 256.36752 
L 154.182013 246.185688 
L 155.267814 258.022731 
L 156.353615 259.361326 
L 157.439416 255.280023 
L 158.525217 253.202585 
L 159.611019 239.217345 
L 160.69682 251.228865 
L 161.782621 244.381099 
L 162.868422 261.03706 
L 163.954223 249.322375 
L 165.040024 262.469704 
L 166.125825 268.941569 
L 167.211627 255.192682 
L 168.297428 252.064285 
L 169.383229 253.051198 
L 170.46903 257.164013 
L 171.554831 253.443139 
L 172.640632 251.214357 
L 173.726434 249.587597 
L 174.812235 238.033628 
L 175.898036 248.394679 
L 176.983837 238.775334 
L 178.069638 248.663546 
L 179.155439 255.163956 
L 180.24124 257.077648 
L 181.327042 257.77378 
L 182.412843 256.37634 
L 183.498644 250.594095 
L 184.584445 259.737255 
L 185.670246 261.135283 
L 186.756047 255.282423 
L 187.841849 237.630251 
L 188.92765 246.977493 
L 190.013451 246.358515 
L 191.099252 229.929441 
L 192.185053 240.05452 
L 193.270854 237.059351 
L 194.356656 248.9973 
L 195.442457 255.488384 
L 196.528258 243.057759 
L 197.614059 224.075199 
L 198.69986 246.861308 
L 199.785661 232.660213 
L 200.871462 243.152607 
L 201.957264 252.470446 
L 203.043065 258.433388 
L 204.128866 254.449076 
L 205.214667 246.812195 
L 206.300468 256.684471 
L 207.386269 232.919401 
L 208.472071 258.626482 
L 209.557872 234.777508 
L 210.643673 227.255347 
L 211.729474 234.898036 
L 212.815275 243.350739 
L 213.901076 245.99571 
L 214.986877 242.670592 
L 216.072679 249.101522 
L 217.15848 259.909915 
L 218.244281 230.667284 
L 219.330082 237.825682 
L 220.415883 259.1632 
L 221.501684 250.538586 
L 222.587486 235.312947 
L 223.673287 215.719599 
L 224.759088 250.695257 
L 225.844889 233.748277 
L 226.93069 225.511161 
L 228.016491 246.35535 
L 229.102292 251.212454 
L 230.188094 248.945823 
L 231.273895 233.043008 
L 232.359696 237.738029 
L 233.445497 252.539058 
L 234.531298 247.458946 
L 235.617099 240.883425 
L 236.702901 252.65855 
L 238.874503 239.267939 
L 239.960304 249.499734 
L 241.046105 234.410085 
L 242.131906 244.727102 
L 243.217708 242.153105 
L 244.303509 247.607813 
L 245.38931 240.959505 
L 246.475111 253.183589 
L 247.560912 245.430109 
L 248.646713 236.291991 
L 249.732514 262.52789 
L 250.818316 229.507493 
L 251.904117 239.925087 
L 252.989918 264.276049 
L 254.075719 230.79748 
L 255.16152 247.273245 
L 256.247321 260.737594 
L 257.333123 252.906804 
L 258.418924 255.36099 
L 259.504725 249.758304 
L 260.590526 234.736755 
L 261.676327 241.842103 
L 262.762128 238.068444 
L 263.847929 251.799584 
L 264.933731 247.282424 
L 266.019532 249.96291 
L 267.105333 235.568586 
L 268.191134 251.267321 
L 269.276935 241.508251 
L 270.362736 252.030746 
L 271.448538 252.518199 
L 272.534339 234.181458 
L 273.62014 233.742863 
L 274.705941 241.697036 
L 275.791742 248.509763 
L 276.877543 247.563938 
L 277.963344 234.091533 
L 279.049146 254.683621 
L 280.134947 253.048459 
L 281.220748 250.315455 
L 282.306549 241.627867 
L 283.39235 257.357676 
L 284.478151 249.433915 
L 285.563953 253.939256 
L 286.649754 245.908645 
L 287.735555 227.894557 
L 288.821356 214.948633 
L 289.907157 224.628112 
L 290.992958 242.113878 
L 292.07876 240.742181 
L 293.164561 238.968625 
L 294.250362 228.478946 
L 295.336163 225.070841 
L 296.421964 227.136766 
L 297.507765 242.541203 
L 298.593566 235.544789 
L 299.679368 208.329289 
L 300.765169 240.603005 
L 301.85097 221.320971 
L 302.936771 231.553166 
L 304.022572 211.858635 
L 305.108373 242.746414 
L 306.194175 208.596213 
L 307.279976 240.115878 
L 308.365777 241.187738 
L 309.451578 204.576275 
L 310.537379 244.194013 
L 311.62318 225.446854 
L 312.708981 239.677877 
L 313.794783 210.02059 
L 314.880584 235.866539 
L 315.966385 205.063464 
L 317.052186 216.121812 
L 318.137987 223.950901 
L 319.223788 221.16616 
L 320.30959 216.631294 
L 321.395391 227.316049 
L 322.481192 217.068924 
L 323.566993 216.020154 
L 324.652794 218.096443 
L 325.738595 221.485035 
L 326.824396 212.73454 
L 327.910198 217.01354 
L 328.995999 233.343624 
L 330.0818 217.911212 
L 331.167601 212.758214 
L 332.253402 219.073924 
L 333.339203 230.316301 
L 334.425005 206.740186 
L 335.510806 222.16991 
L 336.596607 233.337231 
L 337.682408 234.156107 
L 338.768209 224.218301 
L 339.85401 219.766203 
L 340.939811 226.585335 
L 342.025613 215.371291 
L 343.111414 217.349813 
L 344.197215 228.451248 
L 345.283016 210.166227 
L 346.368817 213.321785 
L 347.454618 225.716733 
L 348.54042 213.662823 
L 349.626221 216.735481 
L 350.712022 230.010705 
L 351.797823 231.706714 
L 352.883624 211.156468 
L 353.969425 226.835526 
L 355.055227 216.725686 
L 356.141028 235.552862 
L 357.226829 229.81223 
L 358.31263 210.877919 
L 359.398431 234.799196 
L 360.484232 230.940686 
L 361.570033 231.707668 
L 362.655835 219.05948 
L 363.741636 227.929551 
L 364.827437 219.524074 
L 365.913238 235.78718 
L 366.999039 238.594033 
L 368.08484 231.889272 
L 369.170642 232.044477 
L 370.256443 223.816041 
L 371.342244 229.556256 
L 372.428045 214.890364 
L 373.513846 229.710049 
L 374.599647 223.158703 
L 375.685448 215.079821 
L 376.77125 231.99177 
L 377.857051 232.616207 
L 378.942852 243.530083 
L 380.028653 217.971164 
L 381.114454 232.18541 
L 382.200255 217.971453 
L 383.286057 244.94667 
L 384.371858 232.131533 
L 385.457659 241.494321 
L 386.54346 220.817979 
L 387.629261 233.797927 
L 388.715062 231.262425 
L 389.800863 243.622416 
L 390.886665 238.250196 
L 391.972466 245.827219 
L 393.058267 231.564713 
L 394.144068 241.811093 
L 395.229869 225.671752 
L 396.31567 227.298706 
L 397.401472 227.996373 
L 398.487273 230.074919 
L 398.487273 230.074919 
" clip-path="url(#p5e0e391c8a)" style="fill: none; stroke-dasharray: 9.6,2.4,1.5,2.4; stroke-dashoffset: 0; stroke: #008000; stroke-width: 1.5"/>
   </g>
   <g id="line2d_33">
    <path d="M 73.832727 221.317713 
L 74.918528 198.238495 
L 76.00433 178.973785 
L 77.090131 179.993862 
L 78.175932 177.994079 
L 79.261733 169.878891 
L 80.347534 168.879353 
L 81.433335 164.901215 
L 82.519137 171.059369 
L 84.690739 152.673203 
L 85.77654 165.027402 
L 86.862341 151.617492 
L 87.948142 145.830419 
L 89.033943 144.925858 
L 90.119745 152.6701 
L 92.291347 133.131841 
L 93.377148 129.261574 
L 94.462949 138.875283 
L 95.54875 131.886761 
L 96.634552 129.412213 
L 97.720353 133.083433 
L 98.806154 132.902709 
L 99.891955 121.888993 
L 100.977756 124.377917 
L 102.063557 120.578701 
L 103.149358 114.853933 
L 104.23516 120.351726 
L 105.320961 124.584895 
L 106.406762 120.550256 
L 107.492563 122.316308 
L 108.578364 129.144956 
L 109.664165 116.853665 
L 110.749967 116.237416 
L 111.835768 123.344725 
L 112.921569 121.949506 
L 114.00737 129.521382 
L 115.093171 104.743504 
L 116.178972 109.392218 
L 117.264773 122.45377 
L 118.350575 125.427754 
L 119.436376 117.217213 
L 120.522177 107.758421 
L 121.607978 117.554433 
L 122.693779 113.662563 
L 123.77958 112.109486 
L 124.865382 107.169317 
L 125.951183 103.450405 
L 127.036984 109.757421 
L 128.122785 109.631921 
L 129.208586 119.790158 
L 130.294387 120.194338 
L 131.380189 106.649722 
L 132.46599 110.442704 
L 133.551791 117.827329 
L 134.637592 107.914507 
L 135.723393 106.862614 
L 136.809194 115.894549 
L 137.894995 106.966959 
L 138.980797 107.112329 
L 140.066598 102.744647 
L 141.152399 103.067797 
L 142.2382 101.403547 
L 143.324001 105.679506 
L 144.409802 113.167173 
L 145.495604 102.051327 
L 146.581405 113.852625 
L 147.667206 108.380855 
L 148.753007 127.304549 
L 149.838808 114.996865 
L 150.924609 109.435354 
L 152.01041 106.631284 
L 153.096212 99.454792 
L 154.182013 97.107293 
L 155.267814 102.890716 
L 156.353615 109.408114 
L 157.439416 106.485157 
L 158.525217 109.096704 
L 159.611019 108.674657 
L 160.69682 101.267967 
L 161.782621 106.838572 
L 162.868422 107.714289 
L 163.954223 106.466002 
L 165.040024 109.583369 
L 166.125825 107.228733 
L 167.211627 106.50282 
L 168.297428 98.355975 
L 169.383229 105.622791 
L 170.46903 93.746501 
L 171.554831 97.735741 
L 172.640632 100.272647 
L 173.726434 98.923131 
L 174.812235 99.832836 
L 175.898036 102.754384 
L 176.983837 102.4396 
L 178.069638 113.140895 
L 179.155439 108.953728 
L 180.24124 115.07929 
L 181.327042 109.277155 
L 182.412843 102.801668 
L 183.498644 97.607749 
L 184.584445 103.023596 
L 185.670246 99.752268 
L 186.756047 99.434959 
L 187.841849 98.648153 
L 188.92765 92.308374 
L 190.013451 87.653198 
L 191.099252 78.916278 
L 192.185053 85.510532 
L 193.270854 86.160043 
L 194.356656 92.987244 
L 195.442457 92.35087 
L 196.528258 91.894532 
L 197.614059 75.006636 
L 198.69986 86.736371 
L 199.785661 83.416407 
L 200.871462 89.521208 
L 201.957264 91.808391 
L 203.043065 101.031187 
L 204.128866 89.50275 
L 205.214667 93.853916 
L 206.300468 93.669169 
L 207.386269 79.518785 
L 208.472071 97.867184 
L 209.557872 84.363873 
L 210.643673 81.440743 
L 211.729474 84.380952 
L 212.815275 82.513125 
L 213.901076 89.354555 
L 214.986877 80.35296 
L 216.072679 88.062668 
L 217.15848 91.986077 
L 218.244281 80.812057 
L 219.330082 84.207923 
L 220.415883 91.358682 
L 223.673287 61.765895 
L 224.759088 81.293432 
L 225.844889 73.432005 
L 226.93069 70.596999 
L 228.016491 90.618336 
L 229.102292 96.821216 
L 230.188094 88.74572 
L 231.273895 73.657897 
L 232.359696 74.486933 
L 233.445497 91.835084 
L 234.531298 95.694585 
L 235.617099 84.858723 
L 236.702901 88.463479 
L 237.788702 76.804485 
L 238.874503 81.273585 
L 239.960304 87.156773 
L 241.046105 76.384781 
L 242.131906 85.064911 
L 243.217708 76.806357 
L 244.303509 82.582006 
L 245.38931 71.030444 
L 246.475111 78.780239 
L 247.560912 73.400512 
L 248.646713 77.726868 
L 249.732514 93.894064 
L 250.818316 71.24414 
L 251.904117 84.943037 
L 252.989918 90.328072 
L 254.075719 84.997487 
L 255.16152 93.006263 
L 257.333123 89.173697 
L 258.418924 87.34378 
L 259.504725 84.685326 
L 260.590526 79.752828 
L 261.676327 82.130051 
L 262.762128 82.467756 
L 263.847929 90.980201 
L 264.933731 94.583468 
L 266.019532 94.863045 
L 267.105333 89.915942 
L 268.191134 92.376088 
L 269.276935 89.032338 
L 270.362736 90.389434 
L 271.448538 91.27667 
L 272.534339 85.949953 
L 273.62014 87.314828 
L 274.705941 90.701674 
L 275.791742 92.144782 
L 276.877543 90.143177 
L 277.963344 92.245427 
L 279.049146 105.064637 
L 280.134947 96.835832 
L 281.220748 90.295339 
L 282.306549 89.521979 
L 283.39235 92.540502 
L 284.478151 90.576642 
L 285.563953 96.053102 
L 286.649754 84.041971 
L 287.735555 85.820882 
L 288.821356 74.745727 
L 289.907157 76.745441 
L 292.07876 83.668829 
L 293.164561 84.359021 
L 294.250362 71.938175 
L 295.336163 73.454668 
L 296.421964 77.302164 
L 297.507765 86.283177 
L 298.593566 87.619995 
L 299.679368 76.44671 
L 300.765169 83.221643 
L 301.85097 78.964104 
L 302.936771 79.931676 
L 304.022572 75.754067 
L 305.108373 75.108926 
L 306.194175 74.074643 
L 307.279976 82.337376 
L 308.365777 94.141008 
L 309.451578 70.579761 
L 310.537379 80.610483 
L 311.62318 74.559229 
L 312.708981 83.599984 
L 313.794783 69.715441 
L 314.880584 77.292767 
L 315.966385 62.814087 
L 317.052186 69.757214 
L 318.137987 70.627016 
L 319.223788 71.26912 
L 320.30959 63.874667 
L 321.395391 66.147845 
L 322.481192 63.663056 
L 323.566993 63.937312 
L 324.652794 59.584027 
L 325.738595 59.980373 
L 326.824396 62.139173 
L 327.910198 65.867646 
L 328.995999 71.065805 
L 330.0818 72.230046 
L 331.167601 69.927447 
L 332.253402 67.964004 
L 333.339203 75.968895 
L 334.425005 66.036202 
L 335.510806 67.280486 
L 336.596607 71.359241 
L 337.682408 73.813387 
L 338.768209 62.719696 
L 339.85401 60.878425 
L 340.939811 63.824458 
L 342.025613 53.568 
L 343.111414 66.46116 
L 344.197215 66.26399 
L 345.283016 58.531439 
L 346.368817 59.414566 
L 347.454618 63.183791 
L 348.54042 54.039189 
L 349.626221 62.725146 
L 350.712022 63.274135 
L 351.797823 67.568093 
L 352.883624 66.987841 
L 353.969425 67.297763 
L 355.055227 63.538797 
L 356.141028 73.567309 
L 357.226829 72.891991 
L 358.31263 68.894782 
L 359.398431 73.157729 
L 360.484232 73.671024 
L 361.570033 73.725101 
L 362.655835 72.549696 
L 363.741636 72.678099 
L 364.827437 67.56256 
L 365.913238 83.650464 
L 366.999039 77.699963 
L 368.08484 73.716431 
L 369.170642 68.814951 
L 370.256443 71.503335 
L 371.342244 70.506643 
L 372.428045 70.016439 
L 373.513846 73.669061 
L 374.599647 68.148883 
L 375.685448 72.75853 
L 376.77125 76.793983 
L 377.857051 73.154035 
L 378.942852 80.564858 
L 380.028653 66.785511 
L 381.114454 67.602264 
L 382.200255 74.114972 
L 383.286057 76.708614 
L 384.371858 66.079195 
L 385.457659 82.870877 
L 386.54346 66.240678 
L 387.629261 78.104206 
L 388.715062 75.949597 
L 389.800863 83.74399 
L 390.886665 76.431674 
L 391.972466 80.370939 
L 393.058267 73.610255 
L 394.144068 78.503682 
L 395.229869 68.842316 
L 396.31567 65.558902 
L 397.401472 79.653799 
L 398.487273 83.244009 
L 398.487273 83.244009 
" clip-path="url(#p5e0e391c8a)" style="fill: none; stroke-dasharray: 9.6,2.4,1.5,2.4; stroke-dashoffset: 0; stroke: #008000; stroke-width: 1.5"/>
   </g>
   <g id="line2d_34">
    <path d="M 73.832727 131.733724 
L 74.918528 155.413302 
L 77.090131 116.562693 
L 78.175932 134.822063 
L 79.261733 86.262272 
L 80.347534 99.892604 
L 81.433335 84.985296 
L 82.519137 86.727258 
L 83.604938 87.442087 
L 84.690739 88.698243 
L 85.77654 90.336103 
L 86.862341 72.007333 
L 87.948142 81.105787 
L 89.033943 86.9077 
L 90.119745 71.479886 
L 91.205546 85.450282 
L 92.291347 78.385273 
L 93.377148 83.305795 
L 94.462949 80.966986 
L 95.54875 77.642684 
L 96.634552 80.120295 
L 97.720353 81.258469 
L 98.806154 77.677384 
L 99.891955 69.897546 
L 100.977756 78.808618 
L 102.063557 80.043954 
L 103.149358 72.999765 
L 104.23516 75.054031 
L 105.320961 74.790308 
L 106.406762 78.517135 
L 107.492563 72.57642 
L 108.578364 73.936677 
L 109.664165 73.069166 
L 110.749967 77.621863 
L 111.835768 78.239531 
L 112.921569 74.97075 
L 114.00737 78.489374 
L 115.093171 74.228161 
L 116.178972 74.693147 
L 117.264773 72.076734 
L 118.350575 76.275486 
L 119.436376 75.477376 
L 120.522177 79.148683 
L 121.607978 80.293797 
L 122.693779 68.912054 
L 123.77958 75.109552 
L 124.865382 68.100064 
L 125.951183 68.828773 
L 127.036984 68.086183 
L 128.122785 69.661583 
L 129.208586 76.150565 
L 130.294387 77.469181 
L 131.380189 76.907034 
L 132.46599 74.103239 
L 133.551791 77.219338 
L 134.637592 78.593476 
L 135.723393 77.878647 
L 136.809194 75.886842 
L 137.894995 76.768233 
L 138.980797 76.740472 
L 140.066598 75.671699 
L 141.152399 73.839516 
L 142.2382 72.847083 
L 143.324001 73.992198 
L 144.409802 70.827518 
L 145.495604 71.868531 
L 146.581405 72.527839 
L 147.667206 71.77831 
L 149.838808 76.504509 
L 150.924609 70.751177 
L 152.01041 73.783995 
L 153.096212 71.285564 
L 154.182013 72.999765 
L 155.267814 70.98714 
L 156.353615 77.948048 
L 157.439416 74.637626 
L 158.525217 74.380843 
L 159.611019 77.059716 
L 160.69682 72.61112 
L 161.782621 72.500079 
L 162.868422 74.575165 
L 163.954223 75.449616 
L 165.040024 72.541719 
L 166.125825 70.272311 
L 167.211627 73.201028 
L 168.297428 68.710791 
L 169.383229 68.849593 
L 170.46903 66.906369 
L 171.554831 71.098181 
L 173.726434 70.001648 
L 174.812235 75.054031 
L 175.898036 74.124059 
L 176.983837 69.41868 
L 178.069638 73.582733 
L 179.155439 74.013018 
L 180.24124 76.886214 
L 181.327042 79.294424 
L 182.412843 77.837006 
L 183.498644 78.884959 
L 184.584445 80.52282 
L 185.670246 78.565715 
L 186.756047 78.815558 
L 187.841849 75.380215 
L 188.92765 75.539837 
L 190.013451 73.207968 
L 191.099252 73.249608 
L 192.185053 74.450243 
L 193.270854 69.488081 
L 194.356656 67.482396 
L 195.442457 71.972632 
L 196.528258 70.556855 
L 197.614059 71.681149 
L 198.69986 70.369472 
L 199.785661 72.59724 
L 200.871462 70.716477 
L 201.957264 71.236983 
L 203.043065 71.348024 
L 204.128866 69.217418 
L 205.214667 73.860336 
L 206.300468 68.821833 
L 207.386269 70.133509 
L 208.472071 69.585242 
L 209.557872 69.363159 
L 210.643673 66.115199 
L 211.729474 68.842653 
L 212.815275 65.351789 
L 213.901076 68.58587 
L 214.986877 67.142332 
L 216.072679 70.19597 
L 217.15848 70.536034 
L 218.244281 67.121511 
L 219.330082 69.002275 
L 220.415883 70.320892 
L 221.501684 68.405427 
L 223.673287 69.689344 
L 224.759088 68.821833 
L 225.844889 68.127824 
L 226.93069 66.98965 
L 228.016491 69.869786 
L 229.102292 69.564422 
L 230.188094 68.828773 
L 231.273895 69.141077 
L 232.359696 62.554934 
L 233.445497 65.44201 
L 234.531298 66.816147 
L 235.617099 61.881745 
L 236.702901 62.735376 
L 237.788702 62.686795 
L 238.874503 65.518351 
L 239.960304 62.312031 
L 241.046105 64.525919 
L 242.131906 67.496276 
L 243.217708 61.715183 
L 245.38931 64.428757 
L 246.475111 64.081753 
L 247.560912 66.718986 
L 248.646713 64.213615 
L 249.732514 60.236945 
L 250.818316 63.672288 
L 251.904117 63.0338 
L 252.989918 67.565677 
L 254.075719 66.351162 
L 256.247321 67.711419 
L 257.333123 68.662211 
L 258.418924 68.891234 
L 259.504725 66.725926 
L 261.676327 69.279878 
L 262.762128 67.121511 
L 263.847929 64.151154 
L 264.933731 67.05211 
L 266.019532 67.447695 
L 267.105333 65.705733 
L 268.191134 68.759372 
L 269.276935 68.703851 
L 270.362736 66.906369 
L 271.448538 68.474828 
L 272.534339 67.81552 
L 274.705941 69.508901 
L 275.791742 69.009215 
L 276.877543 67.308894 
L 277.963344 69.127197 
L 279.049146 69.855906 
L 280.134947 65.580812 
L 281.220748 70.293131 
L 282.306549 68.676091 
L 283.39235 69.245178 
L 284.478151 68.939814 
L 286.649754 69.710164 
L 287.735555 69.557482 
L 288.821356 69.099436 
L 289.907157 68.342967 
L 290.992958 67.392175 
L 292.07876 68.224985 
L 293.164561 65.143586 
L 294.250362 70.404173 
L 295.336163 66.267881 
L 296.421964 69.467261 
L 297.507765 69.161897 
L 298.593566 70.869158 
L 299.679368 69.571362 
L 300.765169 72.978945 
L 301.85097 68.356847 
L 302.936771 69.543602 
L 304.022572 71.354965 
L 305.108373 70.147389 
L 306.194175 68.738552 
L 307.279976 68.780192 
L 308.365777 71.514587 
L 309.451578 68.995335 
L 310.537379 70.660956 
L 311.62318 66.045798 
L 312.708981 70.501334 
L 313.794783 67.496276 
L 314.880584 71.00796 
L 315.966385 70.452753 
L 317.052186 68.676091 
L 318.137987 69.4048 
L 319.223788 68.516469 
L 320.30959 66.108259 
L 321.395391 68.474828 
L 322.481192 69.800385 
L 323.566993 68.072303 
L 324.652794 64.879863 
L 325.738595 68.703851 
L 326.824396 68.752432 
L 328.995999 64.303836 
L 330.0818 68.57893 
L 331.167601 65.268508 
L 332.253402 68.863473 
L 333.339203 67.565677 
L 335.510806 66.288701 
L 336.596607 59.945461 
L 337.682408 63.776389 
L 338.768209 63.443265 
L 339.85401 66.024977 
L 340.939811 63.471025 
L 342.025613 65.789015 
L 343.111414 67.183972 
L 344.197215 65.587752 
L 345.283016 62.312031 
L 346.368817 63.88049 
L 348.54042 66.545484 
L 349.626221 62.874178 
L 350.712022 68.495649 
L 351.797823 66.649585 
L 352.883624 66.149899 
L 353.969425 69.39092 
L 355.055227 68.683031 
L 356.141028 66.850848 
L 357.226829 66.642645 
L 358.31263 68.349907 
L 359.398431 69.41868 
L 360.484232 69.314579 
L 361.570033 68.273566 
L 362.655835 70.057168 
L 363.741636 67.04517 
L 364.827437 64.907623 
L 365.913238 66.19154 
L 366.999039 64.824342 
L 368.08484 69.814265 
L 369.170642 67.510156 
L 370.256443 68.828773 
L 371.342244 67.190912 
L 372.428045 66.510784 
L 373.513846 68.530349 
L 374.599647 68.801012 
L 375.685448 68.322146 
L 377.857051 66.337281 
L 378.942852 65.40037 
L 380.028653 63.05462 
L 381.114454 66.705106 
L 382.200255 66.538544 
L 383.286057 64.754941 
L 384.371858 62.312031 
L 385.457659 67.239493 
L 386.54346 63.380804 
L 387.629261 65.546111 
L 388.715062 65.684913 
L 389.800863 68.273566 
L 390.886665 68.329086 
L 391.972466 63.769449 
L 393.058267 69.488081 
L 395.229869 68.287446 
L 396.31567 66.635705 
L 397.401472 60.771331 
L 398.487273 69.585242 
L 398.487273 69.585242 
" clip-path="url(#p5e0e391c8a)" style="fill: none; stroke: #ff0000; stroke-width: 1.5; stroke-linecap: square"/>
   </g>
   <g id="patch_3">
    <path d="M 57.6 307.584 
L 57.6 41.472 
" style="fill: none; stroke: #000000; stroke-width: 0.8; stroke-linejoin: miter; stroke-linecap: square"/>
   </g>
   <g id="patch_4">
    <path d="M 414.72 307.584 
L 414.72 41.472 
" style="fill: none; stroke: #000000; stroke-width: 0.8; stroke-linejoin: miter; stroke-linecap: square"/>
   </g>
   <g id="patch_5">
    <path d="M 57.6 307.584 
L 414.72 307.584 
" style="fill: none; stroke: #000000; stroke-width: 0.8; stroke-linejoin: miter; stroke-linecap: square"/>
   </g>
   <g id="patch_6">
    <path d="M 57.6 41.472 
L 414.72 41.472 
" style="fill: none; stroke: #000000; stroke-width: 0.8; stroke-linejoin: miter; stroke-linecap: square"/>
   </g>
   <g id="text_18">
    <!-- Population's average and best fitness -->
    <g transform="translate(123.529687 35.472) scale(0.12 -0.12)">
     <defs>
      <path id="DejaVuSans-50" d="M 1259 4147 
L 1259 2394 
L 2053 2394 
Q 2494 2394 2734 2622 
Q 2975 2850 2975 3272 
Q 2975 3691 2734 3919 
Q 2494 4147 2053 4147 
L 1259 4147 
z
M 628 4666 
L 2053 4666 
Q 2838 4666 3239 4311 
Q 3641 3956 3641 3272 
Q 3641 2581 3239 2228 
Q 2838 1875 2053 1875 
L 1259 1875 
L 1259 0 
L 628 0 
L 628 4666 
z
" transform="scale(0.015625)"/>
      <path id="DejaVuSans-70" d="M 1159 525 
L 1159 -1331 
L 581 -1331 
L 581 3500 
L 1159 3500 
L 1159 2969 
Q 1341 3281 1617 3432 
Q 1894 3584 2278 3584 
Q 2916 3584 3314 3078 
Q 3713 2572 3713 1747 
Q 3713 922 3314 415 
Q 2916 -91 2278 -91 
Q 1894 -91 1617 61 
Q 1341 213 1159 525 
z
M 3116 1747 
Q 3116 2381 2855 2742 
Q 2594 3103 2138 3103 
Q 1681 3103 1420 2742 
Q 1159 2381 1159 1747 
Q 1159 1113 1420 752 
Q 1681 391 2138 391 
Q 2594 391 2855 752 
Q 3116 1113 3116 1747 
z
" transform="scale(0.015625)"/>
      <path id="DejaVuSans-75" d="M 544 1381 
L 544 3500 
L 1119 3500 
L 1119 1403 
Q 1119 906 1312 657 
Q 1506 409 1894 409 
Q 2359 409 2629 706 
Q 2900 1003 2900 1516 
L 2900 3500 
L 3475 3500 
L 3475 0 
L 2900 0 
L 2900 538 
Q 2691 219 2414 64 
Q 2138 -91 1772 -91 
Q 1169 -91 856 284 
Q 544 659 544 1381 
z
M 1991 3584 
L 1991 3584 
z
" transform="scale(0.015625)"/>
      <path id="DejaVuSans-6c" d="M 603 4863 
L 1178 4863 
L 1178 0 
L 603 0 
L 603 4863 
z
" transform="scale(0.015625)"/>
      <path id="DejaVuSans-27" d="M 1147 4666 
L 1147 2931 
L 616 2931 
L 616 4666 
L 1147 4666 
z
" transform="scale(0.015625)"/>
      <path id="DejaVuSans-20" transform="scale(0.015625)"/>
      <path id="DejaVuSans-76" d="M 191 3500 
L 800 3500 
L 1894 563 
L 2988 3500 
L 3597 3500 
L 2284 0 
L 1503 0 
L 191 3500 
z
" transform="scale(0.015625)"/>
      <path id="DejaVuSans-67" d="M 2906 1791 
Q 2906 2416 2648 2759 
Q 2391 3103 1925 3103 
Q 1463 3103 1205 2759 
Q 947 2416 947 1791 
Q 947 1169 1205 825 
Q 1463 481 1925 481 
Q 2391 481 2648 825 
Q 2906 1169 2906 1791 
z
M 3481 434 
Q 3481 -459 3084 -895 
Q 2688 -1331 1869 -1331 
Q 1566 -1331 1297 -1286 
Q 1028 -1241 775 -1147 
L 775 -588 
Q 1028 -725 1275 -790 
Q 1522 -856 1778 -856 
Q 2344 -856 2625 -561 
Q 2906 -266 2906 331 
L 2906 616 
Q 2728 306 2450 153 
Q 2172 0 1784 0 
Q 1141 0 747 490 
Q 353 981 353 1791 
Q 353 2603 747 3093 
Q 1141 3584 1784 3584 
Q 2172 3584 2450 3431 
Q 2728 3278 2906 2969 
L 2906 3500 
L 3481 3500 
L 3481 434 
z
" transform="scale(0.015625)"/>
      <path id="DejaVuSans-64" d="M 2906 2969 
L 2906 4863 
L 3481 4863 
L 3481 0 
L 2906 0 
L 2906 525 
Q 2725 213 2448 61 
Q 2172 -91 1784 -91 
Q 1150 -91 751 415 
Q 353 922 353 1747 
Q 353 2572 751 3078 
Q 1150 3584 1784 3584 
Q 2172 3584 2448 3432 
Q 2725 3281 2906 2969 
z
M 947 1747 
Q 947 1113 1208 752 
Q 1469 391 1925 391 
Q 2381 391 2643 752 
Q 2906 1113 2906 1747 
Q 2906 2381 2643 2742 
Q 2381 3103 1925 3103 
Q 1469 3103 1208 2742 
Q 947 2381 947 1747 
z
" transform="scale(0.015625)"/>
      <path id="DejaVuSans-62" d="M 3116 1747 
Q 3116 2381 2855 2742 
Q 2594 3103 2138 3103 
Q 1681 3103 1420 2742 
Q 1159 2381 1159 1747 
Q 1159 1113 1420 752 
Q 1681 391 2138 391 
Q 2594 391 2855 752 
Q 3116 1113 3116 1747 
z
M 1159 2969 
Q 1341 3281 1617 3432 
Q 1894 3584 2278 3584 
Q 2916 3584 3314 3078 
Q 3713 2572 3713 1747 
Q 3713 922 3314 415 
Q 2916 -91 2278 -91 
Q 1894 -91 1617 61 
Q 1341 213 1159 525 
L 1159 0 
L 581 0 
L 581 4863 
L 1159 4863 
L 1159 2969 
z
" transform="scale(0.015625)"/>
      <path id="DejaVuSans-66" d="M 2375 4863 
L 2375 4384 
L 1825 4384 
Q 1516 4384 1395 4259 
Q 1275 4134 1275 3809 
L 1275 3500 
L 2222 3500 
L 2222 3053 
L 1275 3053 
L 1275 0 
L 697 0 
L 697 3053 
L 147 3053 
L 147 3500 
L 697 3500 
L 697 3744 
Q 697 4328 969 4595 
Q 1241 4863 1831 4863 
L 2375 4863 
z
" transform="scale(0.015625)"/>
     </defs>
     <use xlink:href="#DejaVuSans-50"/>
     <use xlink:href="#DejaVuSans-6f" x="56.677734"/>
     <use xlink:href="#DejaVuSans-70" x="117.859375"/>
     <use xlink:href="#DejaVuSans-75" x="181.335938"/>
     <use xlink:href="#DejaVuSans-6c" x="244.714844"/>
     <use xlink:href="#DejaVuSans-61" x="272.498047"/>
     <use xlink:href="#DejaVuSans-74" x="333.777344"/>
     <use xlink:href="#DejaVuSans-69" x="372.986328"/>
     <use xlink:href="#DejaVuSans-6f" x="400.769531"/>
     <use xlink:href="#DejaVuSans-6e" x="461.951172"/>
     <use xlink:href="#DejaVuSans-27" x="525.330078"/>
     <use xlink:href="#DejaVuSans-73" x="552.820312"/>
     <use xlink:href="#DejaVuSans-20" x="604.919922"/>
     <use xlink:href="#DejaVuSans-61" x="636.707031"/>
     <use xlink:href="#DejaVuSans-76" x="697.986328"/>
     <use xlink:href="#DejaVuSans-65" x="757.166016"/>
     <use xlink:href="#DejaVuSans-72" x="818.689453"/>
     <use xlink:href="#DejaVuSans-61" x="859.802734"/>
     <use xlink:href="#DejaVuSans-67" x="921.082031"/>
     <use xlink:href="#DejaVuSans-65" x="984.558594"/>
     <use xlink:href="#DejaVuSans-20" x="1046.082031"/>
     <use xlink:href="#DejaVuSans-61" x="1077.869141"/>
     <use xlink:href="#DejaVuSans-6e" x="1139.148438"/>
     <use xlink:href="#DejaVuSans-64" x="1202.527344"/>
     <use xlink:href="#DejaVuSans-20" x="1266.003906"/>
     <use xlink:href="#DejaVuSans-62" x="1297.791016"/>
     <use xlink:href="#DejaVuSans-65" x="1361.267578"/>
     <use xlink:href="#DejaVuSans-73" x="1422.791016"/>
     <use xlink:href="#DejaVuSans-74" x="1474.890625"/>
     <use xlink:href="#DejaVuSans-20" x="1514.099609"/>
     <use xlink:href="#DejaVuSans-66" x="1545.886719"/>
     <use xlink:href="#DejaVuSans-69" x="1581.091797"/>
     <use xlink:href="#DejaVuSans-74" x="1608.875"/>
     <use xlink:href="#DejaVuSans-6e" x="1648.083984"/>
     <use xlink:href="#DejaVuSans-65" x="1711.462891"/>
     <use xlink:href="#DejaVuSans-73" x="1772.986328"/>
     <use xlink:href="#DejaVuSans-73" x="1825.085938"/>
    </g>
   </g>
   <g id="legend_1">
    <g id="patch_7">
     <path d="M 334.779375 302.584 
L 407.72 302.584 
Q 409.72 302.584 409.72 300.584 
L 409.72 242.8715 
Q 409.72 240.8715 407.72 240.8715 
L 334.779375 240.8715 
Q 332.779375 240.8715 332.779375 242.8715 
L 332.779375 300.584 
Q 332.779375 302.584 334.779375 302.584 
z
" style="fill: #ffffff; opacity: 0.8; stroke: #cccccc; stroke-linejoin: miter"/>
    </g>
    <g id="line2d_35">
     <path d="M 336.779375 248.969937 
L 346.779375 248.969937 
L 356.779375 248.969937 
" style="fill: none; stroke: #0000ff; stroke-width: 1.5; stroke-linecap: square"/>
    </g>
    <g id="text_19">
     <!-- average -->
     <g transform="translate(364.779375 252.469937) scale(0.1 -0.1)">
      <use xlink:href="#DejaVuSans-61"/>
      <use xlink:href="#DejaVuSans-76" x="61.279297"/>
      <use xlink:href="#DejaVuSans-65" x="120.458984"/>
      <use xlink:href="#DejaVuSans-72" x="181.982422"/>
      <use xlink:href="#DejaVuSans-61" x="223.095703"/>
      <use xlink:href="#DejaVuSans-67" x="284.375"/>
      <use xlink:href="#DejaVuSans-65" x="347.851562"/>
     </g>
    </g>
    <g id="line2d_36">
     <path d="M 336.779375 263.648062 
L 346.779375 263.648062 
L 356.779375 263.648062 
" style="fill: none; stroke-dasharray: 9.6,2.4,1.5,2.4; stroke-dashoffset: 0; stroke: #008000; stroke-width: 1.5"/>
    </g>
    <g id="text_20">
     <!-- -1 sd -->
     <g transform="translate(364.779375 267.148062) scale(0.1 -0.1)">
      <defs>
       <path id="DejaVuSans-2d" d="M 313 2009 
L 1997 2009 
L 1997 1497 
L 313 1497 
L 313 2009 
z
" transform="scale(0.015625)"/>
      </defs>
      <use xlink:href="#DejaVuSans-2d"/>
      <use xlink:href="#DejaVuSans-31" x="36.083984"/>
      <use xlink:href="#DejaVuSans-20" x="99.707031"/>
      <use xlink:href="#DejaVuSans-73" x="131.494141"/>
      <use xlink:href="#DejaVuSans-64" x="183.59375"/>
     </g>
    </g>
    <g id="line2d_37">
     <path d="M 336.779375 278.326187 
L 346.779375 278.326187 
L 356.779375 278.326187 
" style="fill: none; stroke-dasharray: 9.6,2.4,1.5,2.4; stroke-dashoffset: 0; stroke: #008000; stroke-width: 1.5"/>
    </g>
    <g id="text_21">
     <!-- +1 sd -->
     <g transform="translate(364.779375 281.826187) scale(0.1 -0.1)">
      <defs>
       <path id="DejaVuSans-2b" d="M 2944 4013 
L 2944 2272 
L 4684 2272 
L 4684 1741 
L 2944 1741 
L 2944 0 
L 2419 0 
L 2419 1741 
L 678 1741 
L 678 2272 
L 2419 2272 
L 2419 4013 
L 2944 4013 
z
" transform="scale(0.015625)"/>
      </defs>
      <use xlink:href="#DejaVuSans-2b"/>
      <use xlink:href="#DejaVuSans-31" x="83.789062"/>
      <use xlink:href="#DejaVuSans-20" x="147.412109"/>
      <use xlink:href="#DejaVuSans-73" x="179.199219"/>
      <use xlink:href="#DejaVuSans-64" x="231.298828"/>
     </g>
    </g>
    <g id="line2d_38">
     <path d="M 336.779375 293.004312 
L 346.779375 293.004312 
L 356.779375 293.004312 
" style="fill: none; stroke: #ff0000; stroke-width: 1.5; stroke-linecap: square"/>
    </g>
    <g id="text_22">
     <!-- best -->
     <g transform="translate(364.779375 296.504312) scale(0.1 -0.1)">
      <use xlink:href="#DejaVuSans-62"/>
      <use xlink:href="#DejaVuSans-65" x="63.476562"/>
      <use xlink:href="#DejaVuSans-73" x="125"/>
      <use xlink:href="#DejaVuSans-74" x="177.099609"/>
     </g>
    </g>
   </g>
  </g>
 </g>
 <defs>
  <clipPath id="p5e0e391c8a">
   <rect x="57.6" y="41.472" width="357.12" height="266.112"/>
  </clipPath>
 </defs>
</svg>
