<?xml version="1.0" encoding="utf-8" standalone="no"?>
<!DOCTYPE svg PUBLIC "-//W3C//DTD SVG 1.1//EN"
  "http://www.w3.org/Graphics/SVG/1.1/DTD/svg11.dtd">
<!-- Created with matplotlib (https://matplotlib.org/) -->
<svg height="288pt" version="1.1" viewBox="0 0 432 288" width="432pt" xmlns="http://www.w3.org/2000/svg" xmlns:xlink="http://www.w3.org/1999/xlink">
 <defs>
  <style type="text/css">
*{stroke-linecap:butt;stroke-linejoin:round;}
  </style>
 </defs>
 <g id="figure_1">
  <g id="patch_1">
   <path d="M 0 288 
L 432 288 
L 432 0 
L 0 0 
z
" style="fill:#ffffff;"/>
  </g>
  <g id="axes_1">
   <g id="patch_2">
    <path d="M 54 252 
L 388.8 252 
L 388.8 34.56 
L 54 34.56 
z
" style="fill:#ffffff;"/>
   </g>
   <g id="matplotlib.axis_1">
    <g id="xtick_1">
     <g id="line2d_1">
      <defs>
       <path d="M 0 0 
L 0 3.5 
" id="md9132947a3" style="stroke:#000000;stroke-width:0.8;"/>
      </defs>
      <g>
       <use style="stroke:#000000;stroke-width:0.8;" x="54" xlink:href="#md9132947a3" y="252"/>
      </g>
     </g>
     <g id="text_1">
      <!-- −4 -->
      <defs>
       <path d="M 10.59375 35.5 
L 73.1875 35.5 
L 73.1875 27.203125 
L 10.59375 27.203125 
z
" id="DejaVuSans-8722"/>
       <path d="M 37.796875 64.3125 
L 12.890625 25.390625 
L 37.796875 25.390625 
z
M 35.203125 72.90625 
L 47.609375 72.90625 
L 47.609375 25.390625 
L 58.015625 25.390625 
L 58.015625 17.1875 
L 47.609375 17.1875 
L 47.609375 0 
L 37.796875 0 
L 37.796875 17.1875 
L 4.890625 17.1875 
L 4.890625 26.703125 
z
" id="DejaVuSans-52"/>
      </defs>
      <g transform="translate(46.628906 266.598437)scale(0.1 -0.1)">
       <use xlink:href="#DejaVuSans-8722"/>
       <use x="83.789062" xlink:href="#DejaVuSans-52"/>
      </g>
     </g>
    </g>
    <g id="xtick_2">
     <g id="line2d_2">
      <g>
       <use style="stroke:#000000;stroke-width:0.8;" x="137.7" xlink:href="#md9132947a3" y="252"/>
      </g>
     </g>
     <g id="text_2">
      <!-- −2 -->
      <defs>
       <path d="M 19.1875 8.296875 
L 53.609375 8.296875 
L 53.609375 0 
L 7.328125 0 
L 7.328125 8.296875 
Q 12.9375 14.109375 22.625 23.890625 
Q 32.328125 33.6875 34.8125 36.53125 
Q 39.546875 41.84375 41.421875 45.53125 
Q 43.3125 49.21875 43.3125 52.78125 
Q 43.3125 58.59375 39.234375 62.25 
Q 35.15625 65.921875 28.609375 65.921875 
Q 23.96875 65.921875 18.8125 64.3125 
Q 13.671875 62.703125 7.8125 59.421875 
L 7.8125 69.390625 
Q 13.765625 71.78125 18.9375 73 
Q 24.125 74.21875 28.421875 74.21875 
Q 39.75 74.21875 46.484375 68.546875 
Q 53.21875 62.890625 53.21875 53.421875 
Q 53.21875 48.921875 51.53125 44.890625 
Q 49.859375 40.875 45.40625 35.40625 
Q 44.1875 33.984375 37.640625 27.21875 
Q 31.109375 20.453125 19.1875 8.296875 
z
" id="DejaVuSans-50"/>
      </defs>
      <g transform="translate(130.328906 266.598437)scale(0.1 -0.1)">
       <use xlink:href="#DejaVuSans-8722"/>
       <use x="83.789062" xlink:href="#DejaVuSans-50"/>
      </g>
     </g>
    </g>
    <g id="xtick_3">
     <g id="line2d_3">
      <g>
       <use style="stroke:#000000;stroke-width:0.8;" x="221.4" xlink:href="#md9132947a3" y="252"/>
      </g>
     </g>
     <g id="text_3">
      <!-- 0 -->
      <defs>
       <path d="M 31.78125 66.40625 
Q 24.171875 66.40625 20.328125 58.90625 
Q 16.5 51.421875 16.5 36.375 
Q 16.5 21.390625 20.328125 13.890625 
Q 24.171875 6.390625 31.78125 6.390625 
Q 39.453125 6.390625 43.28125 13.890625 
Q 47.125 21.390625 47.125 36.375 
Q 47.125 51.421875 43.28125 58.90625 
Q 39.453125 66.40625 31.78125 66.40625 
z
M 31.78125 74.21875 
Q 44.046875 74.21875 50.515625 64.515625 
Q 56.984375 54.828125 56.984375 36.375 
Q 56.984375 17.96875 50.515625 8.265625 
Q 44.046875 -1.421875 31.78125 -1.421875 
Q 19.53125 -1.421875 13.0625 8.265625 
Q 6.59375 17.96875 6.59375 36.375 
Q 6.59375 54.828125 13.0625 64.515625 
Q 19.53125 74.21875 31.78125 74.21875 
z
" id="DejaVuSans-48"/>
      </defs>
      <g transform="translate(218.21875 266.598437)scale(0.1 -0.1)">
       <use xlink:href="#DejaVuSans-48"/>
      </g>
     </g>
    </g>
    <g id="xtick_4">
     <g id="line2d_4">
      <g>
       <use style="stroke:#000000;stroke-width:0.8;" x="305.1" xlink:href="#md9132947a3" y="252"/>
      </g>
     </g>
     <g id="text_4">
      <!-- 2 -->
      <g transform="translate(301.91875 266.598437)scale(0.1 -0.1)">
       <use xlink:href="#DejaVuSans-50"/>
      </g>
     </g>
    </g>
    <g id="xtick_5">
     <g id="line2d_5">
      <g>
       <use style="stroke:#000000;stroke-width:0.8;" x="388.8" xlink:href="#md9132947a3" y="252"/>
      </g>
     </g>
     <g id="text_5">
      <!-- 4 -->
      <g transform="translate(385.61875 266.598437)scale(0.1 -0.1)">
       <use xlink:href="#DejaVuSans-52"/>
      </g>
     </g>
    </g>
    <g id="text_6">
     <!-- X -->
     <defs>
      <path d="M 6.296875 72.90625 
L 16.890625 72.90625 
L 35.015625 45.796875 
L 53.21875 72.90625 
L 63.8125 72.90625 
L 40.375 37.890625 
L 65.375 0 
L 54.78125 0 
L 34.28125 31 
L 13.625 0 
L 2.984375 0 
L 29 38.921875 
z
" id="DejaVuSans-88"/>
     </defs>
     <g transform="translate(217.975 280.276563)scale(0.1 -0.1)">
      <use xlink:href="#DejaVuSans-88"/>
     </g>
    </g>
   </g>
   <g id="matplotlib.axis_2">
    <g id="ytick_1">
     <g id="line2d_6">
      <defs>
       <path d="M 0 0 
L -3.5 0 
" id="m3f6def7da5" style="stroke:#000000;stroke-width:0.8;"/>
      </defs>
      <g>
       <use style="stroke:#000000;stroke-width:0.8;" x="54" xlink:href="#m3f6def7da5" y="227.84"/>
      </g>
     </g>
     <g id="text_7">
      <!-- −20 -->
      <g transform="translate(25.895312 231.639219)scale(0.1 -0.1)">
       <use xlink:href="#DejaVuSans-8722"/>
       <use x="83.789062" xlink:href="#DejaVuSans-50"/>
       <use x="147.412109" xlink:href="#DejaVuSans-48"/>
      </g>
     </g>
    </g>
    <g id="ytick_2">
     <g id="line2d_7">
      <g>
       <use style="stroke:#000000;stroke-width:0.8;" x="54" xlink:href="#m3f6def7da5" y="179.52"/>
      </g>
     </g>
     <g id="text_8">
      <!-- −10 -->
      <defs>
       <path d="M 12.40625 8.296875 
L 28.515625 8.296875 
L 28.515625 63.921875 
L 10.984375 60.40625 
L 10.984375 69.390625 
L 28.421875 72.90625 
L 38.28125 72.90625 
L 38.28125 8.296875 
L 54.390625 8.296875 
L 54.390625 0 
L 12.40625 0 
z
" id="DejaVuSans-49"/>
      </defs>
      <g transform="translate(25.895312 183.319219)scale(0.1 -0.1)">
       <use xlink:href="#DejaVuSans-8722"/>
       <use x="83.789062" xlink:href="#DejaVuSans-49"/>
       <use x="147.412109" xlink:href="#DejaVuSans-48"/>
      </g>
     </g>
    </g>
    <g id="ytick_3">
     <g id="line2d_8">
      <g>
       <use style="stroke:#000000;stroke-width:0.8;" x="54" xlink:href="#m3f6def7da5" y="131.2"/>
      </g>
     </g>
     <g id="text_9">
      <!-- 0 -->
      <g transform="translate(40.6375 134.999219)scale(0.1 -0.1)">
       <use xlink:href="#DejaVuSans-48"/>
      </g>
     </g>
    </g>
    <g id="ytick_4">
     <g id="line2d_9">
      <g>
       <use style="stroke:#000000;stroke-width:0.8;" x="54" xlink:href="#m3f6def7da5" y="82.88"/>
      </g>
     </g>
     <g id="text_10">
      <!-- 10 -->
      <g transform="translate(34.275 86.679219)scale(0.1 -0.1)">
       <use xlink:href="#DejaVuSans-49"/>
       <use x="63.623047" xlink:href="#DejaVuSans-48"/>
      </g>
     </g>
    </g>
    <g id="ytick_5">
     <g id="line2d_10">
      <g>
       <use style="stroke:#000000;stroke-width:0.8;" x="54" xlink:href="#m3f6def7da5" y="34.56"/>
      </g>
     </g>
     <g id="text_11">
      <!-- 20 -->
      <g transform="translate(34.275 38.359219)scale(0.1 -0.1)">
       <use xlink:href="#DejaVuSans-50"/>
       <use x="63.623047" xlink:href="#DejaVuSans-48"/>
      </g>
     </g>
    </g>
    <g id="text_12">
     <!-- Y -->
     <defs>
      <path d="M -0.203125 72.90625 
L 10.40625 72.90625 
L 30.609375 42.921875 
L 50.6875 72.90625 
L 61.28125 72.90625 
L 35.5 34.71875 
L 35.5 0 
L 25.59375 0 
L 25.59375 34.71875 
z
" id="DejaVuSans-89"/>
     </defs>
     <g transform="translate(19.815625 146.333906)rotate(-90)scale(0.1 -0.1)">
      <use xlink:href="#DejaVuSans-89"/>
     </g>
    </g>
   </g>
   <g id="line2d_11">
    <defs>
     <path d="M 0 1.5 
C 0.397805 1.5 0.77937 1.341951 1.06066 1.06066 
C 1.341951 0.77937 1.5 0.397805 1.5 0 
C 1.5 -0.397805 1.341951 -0.77937 1.06066 -1.06066 
C 0.77937 -1.341951 0.397805 -1.5 0 -1.5 
C -0.397805 -1.5 -0.77937 -1.341951 -1.06066 -1.06066 
C -1.341951 -0.77937 -1.5 -0.397805 -1.5 0 
C -1.5 0.397805 -1.341951 0.77937 -1.06066 1.06066 
C -0.77937 1.341951 -0.397805 1.5 0 1.5 
z
" id="m393a9b66a9" style="stroke:#808080;"/>
    </defs>
    <g clip-path="url(#paa672ba608)">
     <use style="fill:#808080;stroke:#808080;" x="56.534827" xlink:href="#m393a9b66a9" y="74.114746"/>
     <use style="fill:#808080;stroke:#808080;" x="56.680487" xlink:href="#m393a9b66a9" y="83.384589"/>
     <use style="fill:#808080;stroke:#808080;" x="56.871565" xlink:href="#m393a9b66a9" y="41.713283"/>
     <use style="fill:#808080;stroke:#808080;" x="59.136201" xlink:href="#m393a9b66a9" y="86.1975"/>
     <use style="fill:#808080;stroke:#808080;" x="63.101862" xlink:href="#m393a9b66a9" y="117.949707"/>
     <use style="fill:#808080;stroke:#808080;" x="65.098894" xlink:href="#m393a9b66a9" y="91.666667"/>
     <use style="fill:#808080;stroke:#808080;" x="70.939885" xlink:href="#m393a9b66a9" y="111.567915"/>
     <use style="fill:#808080;stroke:#808080;" x="71.673117" xlink:href="#m393a9b66a9" y="77.297089"/>
     <use style="fill:#808080;stroke:#808080;" x="73.53117" xlink:href="#m393a9b66a9" y="135.918973"/>
     <use style="fill:#808080;stroke:#808080;" x="78.613931" xlink:href="#m393a9b66a9" y="103.839322"/>
     <use style="fill:#808080;stroke:#808080;" x="79.703121" xlink:href="#m393a9b66a9" y="71.833219"/>
     <use style="fill:#808080;stroke:#808080;" x="97.728843" xlink:href="#m393a9b66a9" y="147.269249"/>
     <use style="fill:#808080;stroke:#808080;" x="99.04845" xlink:href="#m393a9b66a9" y="144.330963"/>
     <use style="fill:#808080;stroke:#808080;" x="100.336013" xlink:href="#m393a9b66a9" y="126.386941"/>
     <use style="fill:#808080;stroke:#808080;" x="100.940666" xlink:href="#m393a9b66a9" y="94.723201"/>
     <use style="fill:#808080;stroke:#808080;" x="100.943871" xlink:href="#m393a9b66a9" y="157.911765"/>
     <use style="fill:#808080;stroke:#808080;" x="100.98828" xlink:href="#m393a9b66a9" y="106.760054"/>
     <use style="fill:#808080;stroke:#808080;" x="102.925933" xlink:href="#m393a9b66a9" y="77.392644"/>
     <use style="fill:#808080;stroke:#808080;" x="104.140004" xlink:href="#m393a9b66a9" y="106.950173"/>
     <use style="fill:#808080;stroke:#808080;" x="104.261636" xlink:href="#m393a9b66a9" y="127.222314"/>
     <use style="fill:#808080;stroke:#808080;" x="104.477543" xlink:href="#m393a9b66a9" y="83.979695"/>
     <use style="fill:#808080;stroke:#808080;" x="104.809978" xlink:href="#m393a9b66a9" y="111.006295"/>
     <use style="fill:#808080;stroke:#808080;" x="106.220297" xlink:href="#m393a9b66a9" y="129.683587"/>
     <use style="fill:#808080;stroke:#808080;" x="116.156604" xlink:href="#m393a9b66a9" y="107.189507"/>
     <use style="fill:#808080;stroke:#808080;" x="118.146388" xlink:href="#m393a9b66a9" y="98.395255"/>
     <use style="fill:#808080;stroke:#808080;" x="118.78584" xlink:href="#m393a9b66a9" y="127.660549"/>
     <use style="fill:#808080;stroke:#808080;" x="119.647377" xlink:href="#m393a9b66a9" y="96.240825"/>
     <use style="fill:#808080;stroke:#808080;" x="123.816528" xlink:href="#m393a9b66a9" y="111.697621"/>
     <use style="fill:#808080;stroke:#808080;" x="124.067665" xlink:href="#m393a9b66a9" y="144.036718"/>
     <use style="fill:#808080;stroke:#808080;" x="124.441523" xlink:href="#m393a9b66a9" y="102.332472"/>
     <use style="fill:#808080;stroke:#808080;" x="134.16921" xlink:href="#m393a9b66a9" y="106.006379"/>
     <use style="fill:#808080;stroke:#808080;" x="135.001004" xlink:href="#m393a9b66a9" y="113.425841"/>
     <use style="fill:#808080;stroke:#808080;" x="138.792263" xlink:href="#m393a9b66a9" y="127.507649"/>
     <use style="fill:#808080;stroke:#808080;" x="139.808614" xlink:href="#m393a9b66a9" y="141.067726"/>
     <use style="fill:#808080;stroke:#808080;" x="140.816443" xlink:href="#m393a9b66a9" y="113.340812"/>
     <use style="fill:#808080;stroke:#808080;" x="148.938168" xlink:href="#m393a9b66a9" y="92.675335"/>
     <use style="fill:#808080;stroke:#808080;" x="149.138383" xlink:href="#m393a9b66a9" y="132.523223"/>
     <use style="fill:#808080;stroke:#808080;" x="150.989399" xlink:href="#m393a9b66a9" y="119.420881"/>
     <use style="fill:#808080;stroke:#808080;" x="152.652712" xlink:href="#m393a9b66a9" y="154.234001"/>
     <use style="fill:#808080;stroke:#808080;" x="156.694565" xlink:href="#m393a9b66a9" y="136.540402"/>
     <use style="fill:#808080;stroke:#808080;" x="162.43229" xlink:href="#m393a9b66a9" y="101.374278"/>
     <use style="fill:#808080;stroke:#808080;" x="164.297471" xlink:href="#m393a9b66a9" y="123.854038"/>
     <use style="fill:#808080;stroke:#808080;" x="167.539246" xlink:href="#m393a9b66a9" y="124.0221"/>
     <use style="fill:#808080;stroke:#808080;" x="171.032085" xlink:href="#m393a9b66a9" y="145.622011"/>
     <use style="fill:#808080;stroke:#808080;" x="173.160022" xlink:href="#m393a9b66a9" y="147.306503"/>
     <use style="fill:#808080;stroke:#808080;" x="177.630199" xlink:href="#m393a9b66a9" y="113.215471"/>
     <use style="fill:#808080;stroke:#808080;" x="182.392933" xlink:href="#m393a9b66a9" y="104.446674"/>
     <use style="fill:#808080;stroke:#808080;" x="187.715865" xlink:href="#m393a9b66a9" y="131.830689"/>
     <use style="fill:#808080;stroke:#808080;" x="193.608277" xlink:href="#m393a9b66a9" y="129.799633"/>
     <use style="fill:#808080;stroke:#808080;" x="194.888982" xlink:href="#m393a9b66a9" y="127.515669"/>
     <use style="fill:#808080;stroke:#808080;" x="196.23901" xlink:href="#m393a9b66a9" y="100.32477"/>
     <use style="fill:#808080;stroke:#808080;" x="200.093921" xlink:href="#m393a9b66a9" y="126.097657"/>
     <use style="fill:#808080;stroke:#808080;" x="203.91104" xlink:href="#m393a9b66a9" y="129.267512"/>
     <use style="fill:#808080;stroke:#808080;" x="207.487049" xlink:href="#m393a9b66a9" y="154.887016"/>
     <use style="fill:#808080;stroke:#808080;" x="213.218884" xlink:href="#m393a9b66a9" y="104.593666"/>
     <use style="fill:#808080;stroke:#808080;" x="221.925667" xlink:href="#m393a9b66a9" y="128.479572"/>
     <use style="fill:#808080;stroke:#808080;" x="225.104807" xlink:href="#m393a9b66a9" y="99.536035"/>
     <use style="fill:#808080;stroke:#808080;" x="227.970422" xlink:href="#m393a9b66a9" y="86.468573"/>
     <use style="fill:#808080;stroke:#808080;" x="229.474362" xlink:href="#m393a9b66a9" y="145.138813"/>
     <use style="fill:#808080;stroke:#808080;" x="230.774335" xlink:href="#m393a9b66a9" y="98.824878"/>
     <use style="fill:#808080;stroke:#808080;" x="238.455258" xlink:href="#m393a9b66a9" y="94.244693"/>
     <use style="fill:#808080;stroke:#808080;" x="238.466551" xlink:href="#m393a9b66a9" y="135.131408"/>
     <use style="fill:#808080;stroke:#808080;" x="241.656367" xlink:href="#m393a9b66a9" y="117.505543"/>
     <use style="fill:#808080;stroke:#808080;" x="242.695306" xlink:href="#m393a9b66a9" y="120.753097"/>
     <use style="fill:#808080;stroke:#808080;" x="244.351448" xlink:href="#m393a9b66a9" y="133.59738"/>
     <use style="fill:#808080;stroke:#808080;" x="245.315142" xlink:href="#m393a9b66a9" y="132.973199"/>
     <use style="fill:#808080;stroke:#808080;" x="250.661673" xlink:href="#m393a9b66a9" y="133.982948"/>
     <use style="fill:#808080;stroke:#808080;" x="251.862386" xlink:href="#m393a9b66a9" y="143.772351"/>
     <use style="fill:#808080;stroke:#808080;" x="252.445097" xlink:href="#m393a9b66a9" y="108.660408"/>
     <use style="fill:#808080;stroke:#808080;" x="261.599365" xlink:href="#m393a9b66a9" y="124.086494"/>
     <use style="fill:#808080;stroke:#808080;" x="270.69535" xlink:href="#m393a9b66a9" y="141.162929"/>
     <use style="fill:#808080;stroke:#808080;" x="280.837846" xlink:href="#m393a9b66a9" y="148.918217"/>
     <use style="fill:#808080;stroke:#808080;" x="280.879019" xlink:href="#m393a9b66a9" y="122.042817"/>
     <use style="fill:#808080;stroke:#808080;" x="281.990338" xlink:href="#m393a9b66a9" y="78.369476"/>
     <use style="fill:#808080;stroke:#808080;" x="284.75656" xlink:href="#m393a9b66a9" y="119.97442"/>
     <use style="fill:#808080;stroke:#808080;" x="289.607157" xlink:href="#m393a9b66a9" y="80.358351"/>
     <use style="fill:#808080;stroke:#808080;" x="292.643786" xlink:href="#m393a9b66a9" y="116.500391"/>
     <use style="fill:#808080;stroke:#808080;" x="296.93238" xlink:href="#m393a9b66a9" y="124.863363"/>
     <use style="fill:#808080;stroke:#808080;" x="298.10473" xlink:href="#m393a9b66a9" y="138.516263"/>
     <use style="fill:#808080;stroke:#808080;" x="304.388381" xlink:href="#m393a9b66a9" y="143.992285"/>
     <use style="fill:#808080;stroke:#808080;" x="307.063389" xlink:href="#m393a9b66a9" y="158.96327"/>
     <use style="fill:#808080;stroke:#808080;" x="313.740377" xlink:href="#m393a9b66a9" y="161.226653"/>
     <use style="fill:#808080;stroke:#808080;" x="313.960823" xlink:href="#m393a9b66a9" y="171.522133"/>
     <use style="fill:#808080;stroke:#808080;" x="314.511258" xlink:href="#m393a9b66a9" y="144.506176"/>
     <use style="fill:#808080;stroke:#808080;" x="315.944108" xlink:href="#m393a9b66a9" y="154.905344"/>
     <use style="fill:#808080;stroke:#808080;" x="319.13902" xlink:href="#m393a9b66a9" y="184.835638"/>
     <use style="fill:#808080;stroke:#808080;" x="321.757602" xlink:href="#m393a9b66a9" y="134.917902"/>
     <use style="fill:#808080;stroke:#808080;" x="323.20868" xlink:href="#m393a9b66a9" y="144.073701"/>
     <use style="fill:#808080;stroke:#808080;" x="326.43846" xlink:href="#m393a9b66a9" y="197.546598"/>
     <use style="fill:#808080;stroke:#808080;" x="331.95281" xlink:href="#m393a9b66a9" y="185.011668"/>
     <use style="fill:#808080;stroke:#808080;" x="332.297637" xlink:href="#m393a9b66a9" y="132.13753"/>
     <use style="fill:#808080;stroke:#808080;" x="333.995896" xlink:href="#m393a9b66a9" y="156.439399"/>
     <use style="fill:#808080;stroke:#808080;" x="337.220246" xlink:href="#m393a9b66a9" y="206.110643"/>
     <use style="fill:#808080;stroke:#808080;" x="343.905002" xlink:href="#m393a9b66a9" y="221.26035"/>
     <use style="fill:#808080;stroke:#808080;" x="359.778861" xlink:href="#m393a9b66a9" y="145.687826"/>
     <use style="fill:#808080;stroke:#808080;" x="362.142011" xlink:href="#m393a9b66a9" y="191.248989"/>
     <use style="fill:#808080;stroke:#808080;" x="363.59342" xlink:href="#m393a9b66a9" y="214.051683"/>
     <use style="fill:#808080;stroke:#808080;" x="374.538526" xlink:href="#m393a9b66a9" y="220.552178"/>
     <use style="fill:#808080;stroke:#808080;" x="380.034441" xlink:href="#m393a9b66a9" y="240.440297"/>
     <use style="fill:#808080;stroke:#808080;" x="381.726503" xlink:href="#m393a9b66a9" y="208.309656"/>
    </g>
   </g>
   <g id="line2d_12">
    <path clip-path="url(#paa672ba608)" d="M 56.534827 77.997763 
L 56.680487 78.158546 
L 56.871565 78.368982 
L 59.136201 80.821838 
L 63.101862 84.93661 
L 65.098894 86.923361 
L 70.939885 92.414958 
L 71.673117 93.071388 
L 73.53117 94.70259 
L 78.613931 98.933078 
L 79.703121 99.796369 
L 97.728843 112.003427 
L 99.04845 112.75155 
L 100.336013 113.463514 
L 100.940666 113.791787 
L 100.943871 113.793517 
L 100.98828 113.817474 
L 102.925933 114.842652 
L 104.140004 115.465176 
L 104.261636 115.526711 
L 104.477543 115.635569 
L 104.809978 115.802251 
L 106.220297 116.496953 
L 116.156604 120.842984 
L 118.146388 121.603072 
L 118.78584 121.839879 
L 119.647377 122.153265 
L 123.816528 123.579899 
L 124.067665 123.661173 
L 124.441523 123.7812 
L 134.16921 126.516119 
L 135.001004 126.716865 
L 138.792263 127.569921 
L 139.808614 127.781796 
L 140.816443 127.985071 
L 148.938168 129.387604 
L 149.138383 129.417142 
L 150.989399 129.679374 
L 152.652712 129.898678 
L 156.694565 130.370017 
L 162.43229 130.899873 
L 164.297471 131.039647 
L 167.539246 131.247633 
L 171.032085 131.425407 
L 173.160022 131.511906 
L 177.630199 131.64475 
L 182.392933 131.721666 
L 187.715865 131.741615 
L 193.608277 131.699838 
L 194.888982 131.683773 
L 196.23901 131.664636 
L 200.093921 131.599699 
L 203.91104 131.524729 
L 207.487049 131.449764 
L 213.218884 131.331599 
L 221.925667 131.194124 
L 225.104807 131.167529 
L 227.970422 131.158588 
L 229.474362 131.160416 
L 230.774335 131.165953 
L 238.455258 131.285471 
L 238.466551 131.285769 
L 241.656367 131.386111 
L 242.695306 131.426067 
L 244.351448 131.497584 
L 245.315142 131.543777 
L 250.661673 131.86565 
L 251.862386 131.954195 
L 252.445097 131.999437 
L 261.599365 132.921073 
L 270.69535 134.281123 
L 280.837846 136.411177 
L 280.879019 136.421276 
L 281.990338 136.69852 
L 284.75656 137.428442 
L 289.607157 138.850854 
L 292.643786 139.837902 
L 296.93238 141.364872 
L 298.10473 141.810287 
L 304.388381 144.411601 
L 307.063389 145.632439 
L 313.740377 148.991385 
L 313.960823 149.110113 
L 314.511258 149.408802 
L 315.944108 150.201409 
L 319.13902 152.048473 
L 321.757602 153.646266 
L 323.20868 154.56494 
L 326.43846 156.696674 
L 331.95281 160.62177 
L 332.297637 160.879482 
L 333.995896 162.170197 
L 337.220246 164.720483 
L 343.905002 170.436547 
L 359.778861 186.480287 
L 362.142011 189.183717 
L 363.59342 190.886382 
L 374.538526 204.794924 
L 380.034441 212.517246 
L 381.726503 214.997786 
" style="fill:none;stroke:#0000ff;stroke-linecap:square;stroke-width:1.5;"/>
   </g>
   <g id="line2d_13">
    <path clip-path="url(#paa672ba608)" d="M 56.534827 83.430882 
L 56.680487 83.569762 
L 56.871565 83.751471 
L 59.136201 85.864307 
L 63.101862 89.385921 
L 65.098894 91.075209 
L 70.939885 95.702398 
L 71.673117 96.250974 
L 73.53117 97.609584 
L 78.613931 101.100079 
L 79.703121 101.805964 
L 97.728843 111.480941 
L 99.04845 112.049916 
L 100.336013 112.588008 
L 100.940666 112.834951 
L 100.943871 112.83625 
L 100.98828 112.854241 
L 102.925933 113.620256 
L 104.140004 114.081517 
L 104.261636 114.126944 
L 104.477543 114.207231 
L 104.809978 114.329978 
L 106.220297 114.839036 
L 116.156604 117.913516 
L 118.146388 118.427126 
L 118.78584 118.585333 
L 119.647377 118.793299 
L 123.816528 119.7177 
L 124.067665 119.76915 
L 124.441523 119.844869 
L 134.16921 121.467174 
L 135.001004 121.57653 
L 138.792263 122.020904 
L 139.808614 122.125457 
L 140.816443 122.223264 
L 148.938168 122.811655 
L 149.138383 122.821951 
L 150.989399 122.908242 
L 152.652712 122.972481 
L 156.694565 123.079251 
L 162.43229 123.122364 
L 164.297471 123.111949 
L 167.539246 123.068567 
L 171.032085 122.989555 
L 173.160022 122.926923 
L 177.630199 122.764974 
L 182.392933 122.556153 
L 187.715865 122.292586 
L 193.608277 121.982715 
L 194.888982 121.91492 
L 196.23901 121.843829 
L 200.093921 121.645294 
L 203.91104 121.459984 
L 207.487049 121.301926 
L 213.218884 121.092589 
L 221.925667 120.919163 
L 225.104807 120.911304 
L 227.970422 120.934255 
L 229.474362 120.95859 
L 230.774335 120.986815 
L 238.455258 121.302695 
L 238.466551 121.303361 
L 241.656367 121.517299 
L 242.695306 121.598388 
L 244.351448 121.739714 
L 245.315142 121.828941 
L 250.661673 122.422238 
L 251.862386 122.579442 
L 252.445097 122.659036 
L 261.599365 124.210193 
L 270.69535 126.368018 
L 280.837846 129.598773 
L 280.879019 129.613807 
L 281.990338 130.025689 
L 284.75656 131.102929 
L 289.607157 133.176838 
L 292.643786 134.599677 
L 296.93238 136.779344 
L 298.10473 137.410857 
L 304.388381 141.066643 
L 307.063389 142.76592 
L 313.740377 147.397583 
L 313.960823 147.560264 
L 314.511258 147.969247 
L 315.944108 149.052622 
L 319.13902 151.567178 
L 321.757602 153.731945 
L 323.20868 154.972587 
L 326.43846 157.841053 
L 331.95281 163.08887 
L 332.297637 163.432041 
L 333.995896 165.148401 
L 337.220246 168.528721 
L 343.905002 176.058202 
L 359.778861 196.923065 
L 362.142011 200.407867 
L 363.59342 202.598785 
L 374.538526 220.396945 
L 380.034441 230.213217 
L 381.726503 233.357736 
" style="fill:none;stroke:#008000;stroke-linecap:square;stroke-width:1.5;"/>
   </g>
   <g id="line2d_14">
    <path clip-path="url(#paa672ba608)" d="M 56.534827 108.136649 
L 56.680487 108.191113 
L 56.871565 108.262489 
L 59.136201 109.102815 
L 63.101862 110.553414 
L 65.098894 111.276424 
L 70.939885 113.377107 
L 71.673117 113.640458 
L 73.53117 114.308509 
L 78.613931 116.14723 
L 79.703121 116.544404 
L 97.728843 123.270913 
L 99.04845 123.761701 
L 100.336013 124.23734 
L 100.940666 124.459398 
L 100.943871 124.460573 
L 100.98828 124.476846 
L 102.925933 125.1815 
L 104.140004 125.616988 
L 104.261636 125.660332 
L 104.477543 125.737137 
L 104.809978 125.855053 
L 106.220297 126.350422 
L 116.156604 129.55305 
L 118.146388 130.120964 
L 118.78584 130.297592 
L 119.647377 130.530934 
L 123.816528 131.582795 
L 124.067665 131.641974 
L 124.441523 131.729175 
L 134.16921 133.617207 
L 135.001004 133.744605 
L 138.792263 134.25877 
L 139.808614 134.378361 
L 140.816443 134.489481 
L 148.938168 135.125412 
L 149.138383 135.135535 
L 150.989399 135.217243 
L 152.652712 135.272844 
L 156.694565 135.341629 
L 162.43229 135.293565 
L 164.297471 135.245371 
L 167.539246 135.128431 
L 171.032085 134.960959 
L 173.160022 134.840869 
L 177.630199 134.552718 
L 182.392933 134.206948 
L 187.715865 133.796313 
L 193.608277 133.342866 
L 194.888982 133.247747 
L 196.23901 133.149649 
L 200.093921 132.885272 
L 203.91104 132.653258 
L 207.487049 132.470016 
L 213.218884 132.260697 
L 221.925667 132.185008 
L 225.104807 132.240964 
L 227.970422 132.333157 
L 229.474362 132.397953 
L 230.774335 132.463283 
L 238.455258 133.032502 
L 238.466551 133.033576 
L 241.656367 133.365853 
L 242.695306 133.48661 
L 244.351448 133.69203 
L 245.315142 133.81894 
L 250.661673 134.62353 
L 251.862386 134.828065 
L 252.445097 134.930532 
L 261.599365 136.822735 
L 270.69535 139.2561 
L 280.837846 142.6796 
L 280.879019 142.695134 
L 281.990338 143.119651 
L 284.75656 144.220948 
L 289.607157 146.312294 
L 292.643786 147.731201 
L 296.93238 149.889032 
L 298.10473 150.511918 
L 304.388381 154.111384 
L 307.063389 155.786999 
L 313.740377 160.389536 
L 313.960823 160.552527 
L 314.511258 160.962771 
L 315.944108 162.052988 
L 319.13902 164.605081 
L 321.757602 166.829341 
L 323.20868 168.116494 
L 326.43846 171.129688 
L 331.95281 176.786129 
L 332.297637 177.162746 
L 333.995896 179.058948 
L 337.220246 182.854571 
L 343.905002 191.591446 
L 359.778861 217.486259 
L 362.142011 221.995351 
L 363.59342 224.851035 
L 374.538526 248.530035 
L 380.034441 261.871884 
L 381.726503 266.178375 
" style="fill:none;stroke:#ff0000;stroke-linecap:square;stroke-width:1.5;"/>
   </g>
   <g id="line2d_15">
    <path clip-path="url(#paa672ba608)" d="M 56.534827 58.725116 
L 56.680487 58.948412 
L 56.871565 59.240453 
L 59.136201 62.625799 
L 63.101862 68.218427 
L 65.098894 70.873994 
L 70.939885 78.027689 
L 71.673117 78.86149 
L 73.53117 80.910659 
L 78.613931 86.052927 
L 79.703121 87.067524 
L 97.728843 99.690968 
L 99.04845 100.338131 
L 100.336013 100.938677 
L 100.940666 101.210503 
L 100.943871 101.211927 
L 100.98828 101.231637 
L 102.925933 102.059013 
L 104.140004 102.546046 
L 104.261636 102.593556 
L 104.477543 102.677325 
L 104.809978 102.804903 
L 106.220297 103.32765 
L 116.156604 106.273983 
L 118.146388 106.733288 
L 118.78584 106.873074 
L 119.647377 107.055664 
L 123.816528 107.852605 
L 124.067665 107.896326 
L 124.441523 107.960563 
L 134.16921 109.317141 
L 135.001004 109.408454 
L 138.792263 109.783038 
L 139.808614 109.872554 
L 140.816443 109.957046 
L 148.938168 110.497899 
L 149.138383 110.508367 
L 150.989399 110.599241 
L 152.652712 110.672119 
L 156.694565 110.816873 
L 162.43229 110.951162 
L 164.297471 110.978528 
L 167.539246 111.008703 
L 171.032085 111.018151 
L 173.160022 111.012976 
L 177.630199 110.977231 
L 182.392933 110.905358 
L 187.715865 110.788858 
L 193.608277 110.622564 
L 194.888982 110.582092 
L 196.23901 110.538009 
L 200.093921 110.405316 
L 203.91104 110.266709 
L 207.487049 110.133836 
L 213.218884 109.924482 
L 221.925667 109.653319 
L 225.104807 109.581643 
L 227.970422 109.535353 
L 229.474362 109.519227 
L 230.774335 109.510347 
L 238.455258 109.572888 
L 238.466551 109.573147 
L 241.656367 109.668744 
L 242.695306 109.710165 
L 244.351448 109.787397 
L 245.315142 109.838942 
L 250.661673 110.220945 
L 251.862386 110.330819 
L 252.445097 110.387539 
L 261.599365 111.597651 
L 270.69535 113.479937 
L 280.837846 116.517947 
L 280.879019 116.532479 
L 281.990338 116.931728 
L 284.75656 117.984909 
L 289.607157 120.041382 
L 292.643786 121.468153 
L 296.93238 123.669655 
L 298.10473 124.309796 
L 304.388381 128.021901 
L 307.063389 129.74484 
L 313.740377 134.405629 
L 313.960823 134.568001 
L 314.511258 134.975724 
L 315.944108 136.052255 
L 319.13902 138.529275 
L 321.757602 140.634549 
L 323.20868 141.828681 
L 326.43846 144.552418 
L 331.95281 149.39161 
L 332.297637 149.701335 
L 333.995896 151.237854 
L 337.220246 154.202871 
L 343.905002 160.524958 
L 359.778861 176.359871 
L 362.142011 178.820383 
L 363.59342 180.346535 
L 374.538526 192.263855 
L 380.034441 198.55455 
L 381.726503 200.537098 
" style="fill:none;stroke:#ff0000;stroke-linecap:square;stroke-width:1.5;"/>
   </g>
   <g id="patch_3">
    <path d="M 54 252 
L 54 34.56 
" style="fill:none;stroke:#000000;stroke-linecap:square;stroke-linejoin:miter;stroke-width:0.8;"/>
   </g>
   <g id="patch_4">
    <path d="M 388.8 252 
L 388.8 34.56 
" style="fill:none;stroke:#000000;stroke-linecap:square;stroke-linejoin:miter;stroke-width:0.8;"/>
   </g>
   <g id="patch_5">
    <path d="M 54 252 
L 388.8 252 
" style="fill:none;stroke:#000000;stroke-linecap:square;stroke-linejoin:miter;stroke-width:0.8;"/>
   </g>
   <g id="patch_6">
    <path d="M 54 34.56 
L 388.8 34.56 
" style="fill:none;stroke:#000000;stroke-linecap:square;stroke-linejoin:miter;stroke-width:0.8;"/>
   </g>
   <g id="legend_1">
    <g id="line2d_16">
     <path d="M 307.63125 47.658438 
L 327.63125 47.658438 
" style="fill:none;stroke:#0000ff;stroke-linecap:square;stroke-width:1.5;"/>
    </g>
    <g id="line2d_17"/>
    <g id="text_13">
     <!-- Truth -->
     <defs>
      <path d="M -0.296875 72.90625 
L 61.375 72.90625 
L 61.375 64.59375 
L 35.5 64.59375 
L 35.5 0 
L 25.59375 0 
L 25.59375 64.59375 
L -0.296875 64.59375 
z
" id="DejaVuSans-84"/>
      <path d="M 41.109375 46.296875 
Q 39.59375 47.171875 37.8125 47.578125 
Q 36.03125 48 33.890625 48 
Q 26.265625 48 22.1875 43.046875 
Q 18.109375 38.09375 18.109375 28.8125 
L 18.109375 0 
L 9.078125 0 
L 9.078125 54.6875 
L 18.109375 54.6875 
L 18.109375 46.1875 
Q 20.953125 51.171875 25.484375 53.578125 
Q 30.03125 56 36.53125 56 
Q 37.453125 56 38.578125 55.875 
Q 39.703125 55.765625 41.0625 55.515625 
z
" id="DejaVuSans-114"/>
      <path d="M 8.5 21.578125 
L 8.5 54.6875 
L 17.484375 54.6875 
L 17.484375 21.921875 
Q 17.484375 14.15625 20.5 10.265625 
Q 23.53125 6.390625 29.59375 6.390625 
Q 36.859375 6.390625 41.078125 11.03125 
Q 45.3125 15.671875 45.3125 23.6875 
L 45.3125 54.6875 
L 54.296875 54.6875 
L 54.296875 0 
L 45.3125 0 
L 45.3125 8.40625 
Q 42.046875 3.421875 37.71875 1 
Q 33.40625 -1.421875 27.6875 -1.421875 
Q 18.265625 -1.421875 13.375 4.4375 
Q 8.5 10.296875 8.5 21.578125 
z
M 31.109375 56 
z
" id="DejaVuSans-117"/>
      <path d="M 18.3125 70.21875 
L 18.3125 54.6875 
L 36.8125 54.6875 
L 36.8125 47.703125 
L 18.3125 47.703125 
L 18.3125 18.015625 
Q 18.3125 11.328125 20.140625 9.421875 
Q 21.96875 7.515625 27.59375 7.515625 
L 36.8125 7.515625 
L 36.8125 0 
L 27.59375 0 
Q 17.1875 0 13.234375 3.875 
Q 9.28125 7.765625 9.28125 18.015625 
L 9.28125 47.703125 
L 2.6875 47.703125 
L 2.6875 54.6875 
L 9.28125 54.6875 
L 9.28125 70.21875 
z
" id="DejaVuSans-116"/>
      <path d="M 54.890625 33.015625 
L 54.890625 0 
L 45.90625 0 
L 45.90625 32.71875 
Q 45.90625 40.484375 42.875 44.328125 
Q 39.84375 48.1875 33.796875 48.1875 
Q 26.515625 48.1875 22.3125 43.546875 
Q 18.109375 38.921875 18.109375 30.90625 
L 18.109375 0 
L 9.078125 0 
L 9.078125 75.984375 
L 18.109375 75.984375 
L 18.109375 46.1875 
Q 21.34375 51.125 25.703125 53.5625 
Q 30.078125 56 35.796875 56 
Q 45.21875 56 50.046875 50.171875 
Q 54.890625 44.34375 54.890625 33.015625 
z
" id="DejaVuSans-104"/>
     </defs>
     <g transform="translate(335.63125 51.158438)scale(0.1 -0.1)">
      <use xlink:href="#DejaVuSans-84"/>
      <use x="46.333984" xlink:href="#DejaVuSans-114"/>
      <use x="87.447266" xlink:href="#DejaVuSans-117"/>
      <use x="150.826172" xlink:href="#DejaVuSans-116"/>
      <use x="190.035156" xlink:href="#DejaVuSans-104"/>
     </g>
    </g>
    <g id="line2d_18">
     <path d="M 307.63125 62.336563 
L 327.63125 62.336563 
" style="fill:none;stroke:#008000;stroke-linecap:square;stroke-width:1.5;"/>
    </g>
    <g id="line2d_19"/>
    <g id="text_14">
     <!-- Estimate -->
     <defs>
      <path d="M 9.8125 72.90625 
L 55.90625 72.90625 
L 55.90625 64.59375 
L 19.671875 64.59375 
L 19.671875 43.015625 
L 54.390625 43.015625 
L 54.390625 34.71875 
L 19.671875 34.71875 
L 19.671875 8.296875 
L 56.78125 8.296875 
L 56.78125 0 
L 9.8125 0 
z
" id="DejaVuSans-69"/>
      <path d="M 44.28125 53.078125 
L 44.28125 44.578125 
Q 40.484375 46.53125 36.375 47.5 
Q 32.28125 48.484375 27.875 48.484375 
Q 21.1875 48.484375 17.84375 46.4375 
Q 14.5 44.390625 14.5 40.28125 
Q 14.5 37.15625 16.890625 35.375 
Q 19.28125 33.59375 26.515625 31.984375 
L 29.59375 31.296875 
Q 39.15625 29.25 43.1875 25.515625 
Q 47.21875 21.78125 47.21875 15.09375 
Q 47.21875 7.46875 41.1875 3.015625 
Q 35.15625 -1.421875 24.609375 -1.421875 
Q 20.21875 -1.421875 15.453125 -0.5625 
Q 10.6875 0.296875 5.421875 2 
L 5.421875 11.28125 
Q 10.40625 8.6875 15.234375 7.390625 
Q 20.0625 6.109375 24.8125 6.109375 
Q 31.15625 6.109375 34.5625 8.28125 
Q 37.984375 10.453125 37.984375 14.40625 
Q 37.984375 18.0625 35.515625 20.015625 
Q 33.0625 21.96875 24.703125 23.78125 
L 21.578125 24.515625 
Q 13.234375 26.265625 9.515625 29.90625 
Q 5.8125 33.546875 5.8125 39.890625 
Q 5.8125 47.609375 11.28125 51.796875 
Q 16.75 56 26.8125 56 
Q 31.78125 56 36.171875 55.265625 
Q 40.578125 54.546875 44.28125 53.078125 
z
" id="DejaVuSans-115"/>
      <path d="M 9.421875 54.6875 
L 18.40625 54.6875 
L 18.40625 0 
L 9.421875 0 
z
M 9.421875 75.984375 
L 18.40625 75.984375 
L 18.40625 64.59375 
L 9.421875 64.59375 
z
" id="DejaVuSans-105"/>
      <path d="M 52 44.1875 
Q 55.375 50.25 60.0625 53.125 
Q 64.75 56 71.09375 56 
Q 79.640625 56 84.28125 50.015625 
Q 88.921875 44.046875 88.921875 33.015625 
L 88.921875 0 
L 79.890625 0 
L 79.890625 32.71875 
Q 79.890625 40.578125 77.09375 44.375 
Q 74.3125 48.1875 68.609375 48.1875 
Q 61.625 48.1875 57.5625 43.546875 
Q 53.515625 38.921875 53.515625 30.90625 
L 53.515625 0 
L 44.484375 0 
L 44.484375 32.71875 
Q 44.484375 40.625 41.703125 44.40625 
Q 38.921875 48.1875 33.109375 48.1875 
Q 26.21875 48.1875 22.15625 43.53125 
Q 18.109375 38.875 18.109375 30.90625 
L 18.109375 0 
L 9.078125 0 
L 9.078125 54.6875 
L 18.109375 54.6875 
L 18.109375 46.1875 
Q 21.1875 51.21875 25.484375 53.609375 
Q 29.78125 56 35.6875 56 
Q 41.65625 56 45.828125 52.96875 
Q 50 49.953125 52 44.1875 
z
" id="DejaVuSans-109"/>
      <path d="M 34.28125 27.484375 
Q 23.390625 27.484375 19.1875 25 
Q 14.984375 22.515625 14.984375 16.5 
Q 14.984375 11.71875 18.140625 8.90625 
Q 21.296875 6.109375 26.703125 6.109375 
Q 34.1875 6.109375 38.703125 11.40625 
Q 43.21875 16.703125 43.21875 25.484375 
L 43.21875 27.484375 
z
M 52.203125 31.203125 
L 52.203125 0 
L 43.21875 0 
L 43.21875 8.296875 
Q 40.140625 3.328125 35.546875 0.953125 
Q 30.953125 -1.421875 24.3125 -1.421875 
Q 15.921875 -1.421875 10.953125 3.296875 
Q 6 8.015625 6 15.921875 
Q 6 25.140625 12.171875 29.828125 
Q 18.359375 34.515625 30.609375 34.515625 
L 43.21875 34.515625 
L 43.21875 35.40625 
Q 43.21875 41.609375 39.140625 45 
Q 35.0625 48.390625 27.6875 48.390625 
Q 23 48.390625 18.546875 47.265625 
Q 14.109375 46.140625 10.015625 43.890625 
L 10.015625 52.203125 
Q 14.9375 54.109375 19.578125 55.046875 
Q 24.21875 56 28.609375 56 
Q 40.484375 56 46.34375 49.84375 
Q 52.203125 43.703125 52.203125 31.203125 
z
" id="DejaVuSans-97"/>
      <path d="M 56.203125 29.59375 
L 56.203125 25.203125 
L 14.890625 25.203125 
Q 15.484375 15.921875 20.484375 11.0625 
Q 25.484375 6.203125 34.421875 6.203125 
Q 39.59375 6.203125 44.453125 7.46875 
Q 49.3125 8.734375 54.109375 11.28125 
L 54.109375 2.78125 
Q 49.265625 0.734375 44.1875 -0.34375 
Q 39.109375 -1.421875 33.890625 -1.421875 
Q 20.796875 -1.421875 13.15625 6.1875 
Q 5.515625 13.8125 5.515625 26.8125 
Q 5.515625 40.234375 12.765625 48.109375 
Q 20.015625 56 32.328125 56 
Q 43.359375 56 49.78125 48.890625 
Q 56.203125 41.796875 56.203125 29.59375 
z
M 47.21875 32.234375 
Q 47.125 39.59375 43.09375 43.984375 
Q 39.0625 48.390625 32.421875 48.390625 
Q 24.90625 48.390625 20.390625 44.140625 
Q 15.875 39.890625 15.1875 32.171875 
z
" id="DejaVuSans-101"/>
     </defs>
     <g transform="translate(335.63125 65.836563)scale(0.1 -0.1)">
      <use xlink:href="#DejaVuSans-69"/>
      <use x="63.183594" xlink:href="#DejaVuSans-115"/>
      <use x="115.283203" xlink:href="#DejaVuSans-116"/>
      <use x="154.492188" xlink:href="#DejaVuSans-105"/>
      <use x="182.275391" xlink:href="#DejaVuSans-109"/>
      <use x="279.6875" xlink:href="#DejaVuSans-97"/>
      <use x="340.966797" xlink:href="#DejaVuSans-116"/>
      <use x="380.175781" xlink:href="#DejaVuSans-101"/>
     </g>
    </g>
    <g id="line2d_20">
     <path d="M 307.63125 77.014688 
L 327.63125 77.014688 
" style="fill:none;stroke:#ff0000;stroke-linecap:square;stroke-width:1.5;"/>
    </g>
    <g id="line2d_21"/>
    <g id="text_15">
     <!-- CB -->
     <defs>
      <path d="M 64.40625 67.28125 
L 64.40625 56.890625 
Q 59.421875 61.53125 53.78125 63.8125 
Q 48.140625 66.109375 41.796875 66.109375 
Q 29.296875 66.109375 22.65625 58.46875 
Q 16.015625 50.828125 16.015625 36.375 
Q 16.015625 21.96875 22.65625 14.328125 
Q 29.296875 6.6875 41.796875 6.6875 
Q 48.140625 6.6875 53.78125 8.984375 
Q 59.421875 11.28125 64.40625 15.921875 
L 64.40625 5.609375 
Q 59.234375 2.09375 53.4375 0.328125 
Q 47.65625 -1.421875 41.21875 -1.421875 
Q 24.65625 -1.421875 15.125 8.703125 
Q 5.609375 18.84375 5.609375 36.375 
Q 5.609375 53.953125 15.125 64.078125 
Q 24.65625 74.21875 41.21875 74.21875 
Q 47.75 74.21875 53.53125 72.484375 
Q 59.328125 70.75 64.40625 67.28125 
z
" id="DejaVuSans-67"/>
      <path d="M 19.671875 34.8125 
L 19.671875 8.109375 
L 35.5 8.109375 
Q 43.453125 8.109375 47.28125 11.40625 
Q 51.125 14.703125 51.125 21.484375 
Q 51.125 28.328125 47.28125 31.5625 
Q 43.453125 34.8125 35.5 34.8125 
z
M 19.671875 64.796875 
L 19.671875 42.828125 
L 34.28125 42.828125 
Q 41.5 42.828125 45.03125 45.53125 
Q 48.578125 48.25 48.578125 53.8125 
Q 48.578125 59.328125 45.03125 62.0625 
Q 41.5 64.796875 34.28125 64.796875 
z
M 9.8125 72.90625 
L 35.015625 72.90625 
Q 46.296875 72.90625 52.390625 68.21875 
Q 58.5 63.53125 58.5 54.890625 
Q 58.5 48.1875 55.375 44.234375 
Q 52.25 40.28125 46.1875 39.3125 
Q 53.46875 37.75 57.5 32.78125 
Q 61.53125 27.828125 61.53125 20.40625 
Q 61.53125 10.640625 54.890625 5.3125 
Q 48.25 0 35.984375 0 
L 9.8125 0 
z
" id="DejaVuSans-66"/>
     </defs>
     <g transform="translate(335.63125 80.514688)scale(0.1 -0.1)">
      <use xlink:href="#DejaVuSans-67"/>
      <use x="69.824219" xlink:href="#DejaVuSans-66"/>
     </g>
    </g>
   </g>
  </g>
 </g>
 <defs>
  <clipPath id="paa672ba608">
   <rect height="217.44" width="334.8" x="54" y="34.56"/>
  </clipPath>
 </defs>
</svg>
